<svg id="svg" version="1.1" xmlns="http://www.w3.org/2000/svg" xmlns:xlink="http://www.w3.org/1999/xlink" width="400" height="400" viewBox="0, 0, 400,400"><g id="svgg"><path id="path0" d="M189.800 14.236 C 183.101 14.511,172.928 15.948,168.800 17.203 C 168.250 17.370,166.990 17.735,166.000 18.014 C 161.474 19.288,156.457 21.039,153.304 22.444 C 152.372 22.860,151.505 23.200,151.379 23.200 C 148.510 23.200,131.023 34.597,123.800 41.174 C 118.859 45.674,116.317 48.399,112.023 53.804 C 90.875 80.416,84.362 119.759,96.595 147.000 C 96.892 147.660,97.455 149.010,97.847 150.000 C 98.825 152.466,102.783 160.128,104.768 163.395 C 105.666 164.873,106.400 166.155,106.400 166.245 C 106.400 166.334,107.360 167.891,108.534 169.704 C 121.387 189.556,122.198 190.819,123.165 192.527 C 123.562 193.227,124.358 194.610,124.934 195.600 C 127.008 199.166,132.000 209.634,132.000 210.417 C 132.000 210.634,132.174 211.123,132.387 211.505 C 133.322 213.182,135.530 221.264,136.346 226.000 C 137.473 232.536,137.600 234.645,137.601 246.833 C 137.603 265.061,138.087 268.668,141.591 276.561 C 145.381 285.098,168.854 308.504,178.073 312.939 C 186.436 316.962,198.827 317.458,207.600 314.122 C 215.350 311.174,217.837 309.245,231.053 295.934 C 249.651 277.201,251.203 273.673,251.198 250.132 C 251.196 241.411,251.544 234.875,252.430 227.000 C 252.809 223.630,252.991 222.708,254.092 218.600 C 257.258 206.785,262.952 195.608,275.183 177.200 C 281.745 167.324,285.473 160.990,288.954 153.800 C 292.135 147.231,293.430 144.090,294.436 140.500 C 294.636 139.785,294.992 138.525,295.227 137.700 C 305.318 102.216,291.346 62.676,259.400 36.316 C 249.389 28.056,233.758 20.576,219.200 17.080 C 215.274 16.137,214.028 15.891,207.800 14.830 C 205.134 14.375,194.755 14.033,189.800 14.236 M207.200 33.394 C 209.070 33.714,211.050 34.082,211.600 34.212 C 212.150 34.343,213.410 34.630,214.400 34.850 C 231.707 38.702,247.534 48.224,259.600 62.045 C 265.693 69.024,274.400 83.381,274.400 86.449 C 274.400 86.774,274.551 87.211,274.737 87.420 C 275.045 87.768,276.307 91.772,277.189 95.200 C 280.038 106.270,280.575 117.288,278.747 127.200 C 277.316 134.965,274.003 143.483,269.140 151.905 C 268.073 153.752,267.200 155.334,267.200 155.421 C 267.200 155.508,265.940 157.519,264.399 159.890 C 253.648 176.438,249.600 182.753,249.600 182.981 C 249.600 183.067,248.739 184.636,247.687 186.468 C 243.722 193.374,239.956 201.883,237.713 209.000 C 237.158 210.760,236.476 212.830,236.197 213.600 L 235.690 215.000 229.283 215.110 L 222.876 215.219 220.338 213.759 C 215.429 210.934,210.139 207.567,207.827 205.797 C 207.074 205.221,207.088 205.159,208.338 203.502 C 214.211 195.718,219.260 186.956,222.054 179.700 C 222.244 179.205,222.564 178.395,222.764 177.900 C 223.326 176.509,223.664 175.508,224.011 174.200 C 226.483 164.908,227.200 160.708,227.200 155.510 C 227.200 140.487,217.950 128.029,203.200 123.185 C 199.600 122.003,188.924 121.737,185.600 122.747 C 172.092 126.851,163.112 136.407,160.552 149.400 C 159.895 152.740,159.812 163.786,160.421 166.869 C 161.418 171.908,161.703 173.139,162.448 175.600 C 164.666 182.934,171.304 196.063,173.976 198.400 C 174.102 198.510,174.696 199.259,175.296 200.065 C 175.897 200.871,176.622 201.771,176.907 202.065 C 177.772 202.956,179.200 205.099,179.200 205.506 C 179.200 205.913,171.096 211.338,166.860 213.766 L 164.320 215.221 158.715 215.111 L 153.110 215.000 152.610 213.600 C 152.335 212.830,151.716 210.940,151.234 209.400 C 150.753 207.860,150.206 206.240,150.018 205.800 C 149.831 205.360,149.269 203.920,148.770 202.600 C 147.490 199.218,145.816 195.465,144.131 192.200 C 140.067 184.325,138.350 181.492,128.866 167.000 C 126.994 164.140,124.979 160.990,124.388 160.000 C 123.797 159.010,122.426 156.760,121.342 155.000 C 119.356 151.774,115.327 144.023,114.481 141.800 C 114.230 141.140,113.643 139.610,113.177 138.400 C 112.025 135.414,111.118 132.151,110.232 127.800 C 108.261 118.130,108.844 104.276,111.603 95.200 C 111.770 94.650,112.129 93.390,112.399 92.400 C 112.670 91.410,113.033 90.240,113.207 89.800 C 113.380 89.360,113.918 87.920,114.403 86.600 C 122.871 63.517,144.926 43.171,168.800 36.416 C 169.790 36.136,171.050 35.762,171.600 35.584 C 172.150 35.406,173.500 35.083,174.600 34.866 C 177.988 34.198,180.910 33.639,183.000 33.259 C 186.392 32.641,203.345 32.736,207.200 33.394 M207.311 44.859 C 199.076 48.854,200.441 59.303,209.600 62.379 C 211.030 62.860,212.560 63.397,213.000 63.573 C 213.440 63.749,214.250 64.072,214.800 64.291 C 230.164 70.404,242.274 81.499,249.491 96.073 C 251.390 99.908,253.386 101.970,255.943 102.736 C 263.034 104.860,269.878 98.046,267.502 91.228 C 263.962 81.071,252.375 66.021,243.000 59.404 C 241.460 58.317,240.110 57.309,240.000 57.165 C 238.878 55.696,226.682 49.110,220.800 46.795 C 213.268 43.832,210.305 43.407,207.311 44.859 M200.093 141.975 C 204.388 144.071,207.040 147.367,208.356 152.246 C 210.586 160.514,203.644 179.564,194.084 191.414 L 193.167 192.549 192.222 191.575 C 180.897 179.904,175.068 158.826,180.323 148.548 C 183.852 141.645,193.108 138.568,200.093 141.975 M233.034 234.145 C 233.149 234.445,233.099 236.020,232.922 237.645 L 232.600 240.600 212.200 240.800 C 188.934 241.028,189.965 240.872,187.137 244.592 C 183.768 249.023,185.249 255.586,190.200 258.166 C 191.744 258.971,192.510 259.007,212.000 259.200 L 232.200 259.400 232.154 261.692 C 232.095 264.647,231.282 267.528,230.370 268.016 C 229.451 268.508,159.219 268.526,158.442 268.035 C 156.948 267.089,156.717 264.980,156.401 249.400 C 156.232 241.040,156.173 234.065,156.270 233.900 C 156.625 233.298,232.803 233.541,233.034 234.145 M213.198 287.100 C 213.195 287.703,208.736 292.379,206.831 293.777 C 200.809 298.198,191.536 299.115,185.600 295.877 C 181.758 293.782,175.600 288.411,175.600 287.157 C 175.600 286.953,183.653 286.800,194.400 286.800 C 204.740 286.800,213.199 286.935,213.198 287.100 M198.394 328.700 C 194.430 333.450,191.023 349.118,193.866 349.523 C 195.017 349.687,195.381 348.549,195.310 345.000 C 195.226 340.806,197.187 334.069,199.599 330.267 C 201.626 327.070,200.728 325.903,198.394 328.700 M206.039 328.229 C 203.626 330.259,197.488 339.222,198.095 339.829 C 198.177 339.911,198.857 338.948,199.606 337.689 C 202.405 332.983,206.330 328.462,207.167 328.980 C 208.980 330.100,205.524 336.182,201.439 339.061 C 199.898 340.147,200.388 340.800,202.744 340.800 C 205.588 340.800,206.429 342.437,205.003 345.195 C 204.674 345.830,204.512 346.626,204.642 346.964 C 204.898 347.632,203.733 349.066,203.293 348.626 C 203.144 348.478,203.283 348.196,203.600 348.000 C 203.917 347.804,204.057 347.524,203.910 347.377 C 203.764 347.230,202.869 347.739,201.922 348.507 C 199.951 350.106,197.489 351.415,194.616 352.391 C 191.684 353.388,193.920 353.913,197.126 352.980 C 205.670 350.497,211.234 342.024,205.608 340.063 C 204.122 339.545,204.058 338.718,205.449 337.974 C 207.476 336.889,209.800 332.879,209.800 330.468 C 209.800 327.243,208.283 326.340,206.039 328.229 M190.000 330.448 C 189.230 330.861,188.206 331.199,187.724 331.199 C 187.242 331.200,186.736 331.380,186.600 331.600 C 186.334 332.031,186.773 332.126,188.500 332.012 C 189.894 331.920,189.908 331.815,187.944 336.147 C 185.011 342.614,183.200 347.304,183.200 348.431 C 183.200 349.401,183.013 349.561,181.602 349.800 C 180.050 350.062,179.273 350.606,179.758 351.091 C 180.000 351.333,183.149 350.719,186.400 349.795 L 188.200 349.283 186.724 349.242 C 184.410 349.176,184.520 348.530,188.365 339.530 C 189.264 337.425,190.000 335.410,190.000 335.051 C 190.000 334.693,190.183 334.400,190.406 334.400 C 190.630 334.400,191.121 333.754,191.498 332.964 C 191.897 332.127,192.687 331.306,193.391 330.997 C 194.431 330.540,194.477 330.461,193.724 330.433 C 193.242 330.415,192.736 330.220,192.600 330.000 C 192.264 329.457,191.654 329.562,190.000 330.448 " stroke="none" fill="#fbcc04" fill-rule="evenodd"></path><path id="path1" d="M397.200 68.000 C 397.200 68.220,396.840 68.400,396.400 68.400 C 395.960 68.400,395.600 68.580,395.600 68.800 C 395.600 69.020,395.060 69.200,394.400 69.200 C 393.740 69.200,393.200 69.380,393.200 69.600 C 393.200 69.820,392.840 70.000,392.400 70.000 C 391.960 70.000,391.600 70.180,391.600 70.400 C 391.600 70.620,391.240 70.800,390.800 70.800 C 390.360 70.800,390.000 70.980,390.000 71.200 C 390.000 71.420,389.100 71.600,388.000 71.600 C 386.900 71.600,386.000 71.780,386.000 72.000 C 386.000 72.220,385.640 72.400,385.200 72.400 C 384.760 72.400,384.400 72.580,384.400 72.800 C 384.400 73.020,384.040 73.200,383.600 73.200 C 383.160 73.200,382.800 73.380,382.800 73.600 C 382.800 73.820,382.260 74.000,381.600 74.000 C 380.940 74.000,380.400 74.180,380.400 74.400 C 380.400 74.620,380.040 74.800,379.600 74.800 C 379.160 74.800,378.800 74.980,378.800 75.200 C 378.800 75.420,378.080 75.600,377.200 75.600 C 376.320 75.600,375.600 75.780,375.600 76.000 C 375.600 76.220,375.060 76.400,374.400 76.400 C 373.740 76.400,373.200 76.580,373.200 76.800 C 373.200 77.020,372.840 77.200,372.400 77.200 C 371.960 77.200,371.600 77.380,371.600 77.600 C 371.600 77.820,371.240 78.000,370.800 78.000 C 370.360 78.000,370.000 78.180,370.000 78.400 C 370.000 78.620,369.460 78.800,368.800 78.800 C 368.140 78.800,367.600 78.980,367.600 79.200 C 367.600 79.420,366.740 79.600,365.688 79.600 C 364.235 79.600,363.638 79.792,363.200 80.400 C 362.861 80.870,362.165 81.200,361.512 81.200 C 360.900 81.200,360.400 81.380,360.400 81.600 C 360.400 81.820,360.040 82.000,359.600 82.000 C 359.160 82.000,358.800 82.180,358.800 82.400 C 358.800 82.620,358.440 82.800,358.000 82.800 C 357.560 82.800,357.200 82.980,357.200 83.200 C 357.200 83.420,356.300 83.600,355.200 83.600 C 354.100 83.600,353.200 83.780,353.200 84.000 C 353.200 84.220,352.840 84.400,352.400 84.400 C 351.960 84.400,351.600 84.580,351.600 84.800 C 351.600 85.020,351.240 85.200,350.800 85.200 C 350.360 85.200,350.000 85.380,350.000 85.600 C 350.000 85.820,349.460 86.000,348.800 86.000 C 348.140 86.000,347.600 86.180,347.600 86.400 C 347.600 86.620,347.240 86.800,346.800 86.800 C 346.360 86.800,346.000 86.980,346.000 87.200 C 346.000 87.420,345.280 87.600,344.400 87.600 C 343.520 87.600,342.800 87.780,342.800 88.000 C 342.800 88.220,342.260 88.400,341.600 88.400 C 340.940 88.400,340.400 88.580,340.400 88.800 C 340.400 89.020,340.040 89.200,339.600 89.200 C 339.160 89.200,338.800 89.380,338.800 89.600 C 338.800 89.820,338.300 90.000,337.688 90.000 C 337.035 90.000,336.339 90.330,336.000 90.800 C 335.562 91.408,334.965 91.600,333.512 91.600 C 332.460 91.600,331.600 91.780,331.600 92.000 C 331.600 92.220,331.060 92.400,330.400 92.400 C 329.740 92.400,329.200 92.580,329.200 92.800 C 329.200 93.020,328.840 93.200,328.400 93.200 C 327.960 93.200,327.600 93.380,327.600 93.600 C 327.600 93.820,327.240 94.000,326.800 94.000 C 326.360 94.000,326.000 94.180,326.000 94.400 C 326.000 94.620,325.460 94.800,324.800 94.800 C 324.140 94.800,323.600 94.980,323.600 95.200 C 323.600 95.420,322.880 95.600,322.000 95.600 C 321.120 95.600,320.400 95.780,320.400 96.000 C 320.400 96.220,320.040 96.400,319.600 96.400 C 319.160 96.400,318.800 96.580,318.800 96.800 C 318.800 97.020,318.260 97.200,317.600 97.200 C 316.940 97.200,316.400 97.380,316.400 97.600 C 316.400 97.820,316.040 98.000,315.600 98.000 C 315.160 98.000,314.800 98.180,314.800 98.400 C 314.800 98.620,314.440 98.800,314.000 98.800 C 313.560 98.800,313.200 98.980,313.200 99.200 C 313.200 99.420,312.300 99.600,311.200 99.600 C 310.100 99.600,309.200 99.780,309.200 100.000 C 309.200 100.220,308.840 100.400,308.400 100.400 C 307.960 100.400,307.600 100.580,307.600 100.800 C 307.600 101.020,307.240 101.200,306.800 101.200 C 306.360 101.200,306.000 101.380,306.000 101.600 C 306.000 101.820,305.460 102.000,304.800 102.000 C 304.140 102.000,303.600 102.180,303.600 102.400 C 303.600 102.620,303.240 102.800,302.800 102.800 C 302.360 102.800,302.000 102.980,302.000 103.200 C 302.000 103.420,301.285 103.600,300.412 103.600 L 298.824 103.600 298.662 114.700 C 298.491 126.422,298.280 128.410,296.397 136.000 C 296.152 136.990,295.851 138.297,295.729 138.905 C 295.607 139.513,295.349 140.108,295.154 140.229 C 294.959 140.349,294.800 140.773,294.800 141.170 C 294.800 141.794,294.377 143.023,292.796 147.000 C 289.940 154.182,284.032 164.646,275.406 177.798 C 258.914 202.944,253.676 215.125,252.443 231.200 C 252.199 234.390,251.819 239.298,251.599 242.108 C 251.380 244.917,251.200 251.073,251.200 255.788 C 251.200 264.411,251.003 266.255,249.530 271.400 C 247.285 279.247,244.937 282.433,231.299 296.140 C 214.328 313.197,207.845 316.804,194.200 316.779 C 180.670 316.754,174.610 313.351,157.506 296.176 C 138.352 276.942,137.233 274.230,137.209 246.985 C 137.201 237.201,136.735 230.156,135.807 225.788 C 133.461 214.741,130.100 205.998,124.471 196.300 C 123.992 195.475,123.257 194.195,122.838 193.455 C 121.207 190.578,120.978 190.216,120.300 189.445 C 119.915 189.007,119.600 188.493,119.600 188.303 C 119.600 187.848,116.352 183.039,115.928 182.867 C 115.747 182.793,115.600 182.517,115.600 182.252 C 115.600 181.987,115.067 181.147,114.416 180.385 C 113.765 179.623,113.225 178.857,113.216 178.683 C 113.207 178.509,112.840 177.980,112.400 177.508 C 111.960 177.036,111.600 176.413,111.600 176.125 C 111.600 175.836,111.464 175.600,111.298 175.600 C 111.131 175.600,110.756 175.060,110.464 174.400 C 109.940 173.217,107.600 172.563,107.600 173.600 C 107.600 173.820,107.240 174.000,106.800 174.000 C 106.360 174.000,106.000 174.180,106.000 174.400 C 106.000 174.620,105.460 174.800,104.800 174.800 C 104.140 174.800,103.600 174.980,103.600 175.200 C 103.600 175.420,102.880 175.600,102.000 175.600 C 101.120 175.600,100.400 175.780,100.400 176.000 C 100.400 176.220,100.040 176.400,99.600 176.400 C 99.160 176.400,98.800 176.580,98.800 176.800 C 98.800 177.020,98.300 177.200,97.688 177.200 C 97.035 177.200,96.339 177.530,96.000 178.000 C 95.661 178.470,94.965 178.800,94.312 178.800 C 93.700 178.800,93.200 178.980,93.200 179.200 C 93.200 179.420,92.300 179.600,91.200 179.600 C 90.100 179.600,89.200 179.780,89.200 180.000 C 89.200 180.220,88.840 180.400,88.400 180.400 C 87.960 180.400,87.600 180.580,87.600 180.800 C 87.600 181.020,87.240 181.200,86.800 181.200 C 86.360 181.200,86.000 181.380,86.000 181.600 C 86.000 181.820,85.460 182.000,84.800 182.000 C 84.140 182.000,83.600 182.180,83.600 182.400 C 83.600 182.620,83.240 182.800,82.800 182.800 C 82.360 182.800,82.000 182.980,82.000 183.200 C 82.000 183.420,81.280 183.600,80.400 183.600 C 79.520 183.600,78.800 183.780,78.800 184.000 C 78.800 184.220,78.260 184.400,77.600 184.400 C 76.940 184.400,76.400 184.580,76.400 184.800 C 76.400 185.020,76.040 185.200,75.600 185.200 C 75.160 185.200,74.800 185.380,74.800 185.600 C 74.800 185.820,74.440 186.000,74.000 186.000 C 73.560 186.000,73.200 186.180,73.200 186.400 C 73.200 186.620,72.840 186.800,72.400 186.800 C 71.960 186.800,71.600 186.980,71.600 187.200 C 71.600 187.420,70.700 187.600,69.600 187.600 C 68.500 187.600,67.600 187.780,67.600 188.000 C 67.600 188.220,67.240 188.400,66.800 188.400 C 66.360 188.400,66.000 188.580,66.000 188.800 C 66.000 189.020,65.460 189.200,64.800 189.200 C 64.140 189.200,63.600 189.380,63.600 189.600 C 63.600 189.820,63.240 190.000,62.800 190.000 C 62.360 190.000,62.000 190.180,62.000 190.400 C 62.000 190.620,61.460 190.800,60.800 190.800 C 60.140 190.800,59.600 190.980,59.600 191.200 C 59.600 191.420,58.880 191.600,58.000 191.600 C 57.120 191.600,56.400 191.780,56.400 192.000 C 56.400 192.220,56.040 192.400,55.600 192.400 C 55.160 192.400,54.800 192.580,54.800 192.800 C 54.800 193.020,54.300 193.200,53.688 193.200 C 53.035 193.200,52.339 193.530,52.000 194.000 C 51.661 194.470,50.965 194.800,50.312 194.800 C 49.700 194.800,49.200 194.980,49.200 195.200 C 49.200 195.420,48.300 195.600,47.200 195.600 C 46.100 195.600,45.200 195.780,45.200 196.000 C 45.200 196.220,44.840 196.400,44.400 196.400 C 43.960 196.400,43.600 196.580,43.600 196.800 C 43.600 197.020,43.240 197.200,42.800 197.200 C 42.360 197.200,42.000 197.380,42.000 197.600 C 42.000 197.820,41.460 198.000,40.800 198.000 C 40.140 198.000,39.600 198.180,39.600 198.400 C 39.600 198.620,39.240 198.800,38.800 198.800 C 38.360 198.800,38.000 198.980,38.000 199.200 C 38.000 199.420,37.280 199.600,36.400 199.600 C 35.520 199.600,34.800 199.780,34.800 200.000 C 34.800 200.220,34.260 200.400,33.600 200.400 C 32.940 200.400,32.400 200.580,32.400 200.800 C 32.400 201.020,32.040 201.200,31.600 201.200 C 31.160 201.200,30.800 201.380,30.800 201.600 C 30.800 201.820,30.440 202.000,30.000 202.000 C 29.560 202.000,29.200 202.180,29.200 202.400 C 29.200 202.620,28.840 202.800,28.400 202.800 C 27.960 202.800,27.600 202.980,27.600 203.200 C 27.600 203.420,26.700 203.600,25.600 203.600 C 24.500 203.600,23.600 203.780,23.600 204.000 C 23.600 204.220,23.240 204.400,22.800 204.400 C 22.360 204.400,22.000 204.580,22.000 204.800 C 22.000 205.020,21.460 205.200,20.800 205.200 C 20.140 205.200,19.600 205.380,19.600 205.600 C 19.600 205.820,19.240 206.000,18.800 206.000 C 18.360 206.000,18.000 206.180,18.000 206.400 C 18.000 206.620,17.460 206.800,16.800 206.800 C 16.140 206.800,15.600 206.980,15.600 207.200 C 15.600 207.420,14.880 207.600,14.000 207.600 C 13.120 207.600,12.400 207.780,12.400 208.000 C 12.400 208.220,12.040 208.400,11.600 208.400 C 11.160 208.400,10.800 208.580,10.800 208.800 C 10.800 209.020,10.300 209.200,9.688 209.200 C 9.035 209.200,8.339 209.530,8.000 210.000 C 7.661 210.470,6.965 210.800,6.312 210.800 C 5.700 210.800,5.200 210.980,5.200 211.200 C 5.200 211.420,4.300 211.600,3.200 211.600 C 2.100 211.600,1.200 211.780,1.200 212.000 C 1.200 212.220,0.930 212.400,0.600 212.400 C 0.068 212.400,0.000 223.089,0.000 306.200 L 0.000 400.000 5.800 400.000 C 10.689 400.000,11.600 399.906,11.600 399.400 C 11.600 399.000,12.000 398.800,12.800 398.800 C 13.460 398.800,14.000 398.620,14.000 398.400 C 14.000 398.180,14.360 398.000,14.800 398.000 C 15.240 398.000,15.600 397.820,15.600 397.600 C 15.600 397.380,15.960 397.200,16.400 397.200 C 16.840 397.200,17.200 397.020,17.200 396.800 C 17.200 396.580,17.740 396.400,18.400 396.400 C 19.060 396.400,19.600 396.220,19.600 396.000 C 19.600 395.780,20.320 395.600,21.200 395.600 C 22.080 395.600,22.800 395.420,22.800 395.200 C 22.800 394.980,23.160 394.800,23.600 394.800 C 24.040 394.800,24.400 394.620,24.400 394.400 C 24.400 394.180,24.940 394.000,25.600 394.000 C 26.260 394.000,26.800 393.820,26.800 393.600 C 26.800 393.380,27.160 393.200,27.600 393.200 C 28.040 393.200,28.400 393.020,28.400 392.800 C 28.400 392.580,28.760 392.400,29.200 392.400 C 29.640 392.400,30.000 392.220,30.000 392.000 C 30.000 391.780,30.900 391.600,32.000 391.600 C 33.100 391.600,34.000 391.420,34.000 391.200 C 34.000 390.980,34.360 390.800,34.800 390.800 C 35.240 390.800,35.600 390.620,35.600 390.400 C 35.600 390.180,35.960 390.000,36.400 390.000 C 36.840 390.000,37.200 389.820,37.200 389.600 C 37.200 389.380,37.740 389.200,38.400 389.200 C 39.060 389.200,39.600 389.020,39.600 388.800 C 39.600 388.580,39.960 388.400,40.400 388.400 C 40.840 388.400,41.200 388.220,41.200 388.000 C 41.200 387.780,41.920 387.600,42.800 387.600 C 43.680 387.600,44.400 387.420,44.400 387.200 C 44.400 386.980,44.940 386.800,45.600 386.800 C 46.260 386.800,46.800 386.620,46.800 386.400 C 46.800 386.180,47.160 386.000,47.600 386.000 C 48.040 386.000,48.400 385.820,48.400 385.600 C 48.400 385.380,48.900 385.200,49.512 385.200 C 50.165 385.200,50.861 384.870,51.200 384.400 C 51.638 383.792,52.235 383.600,53.688 383.600 C 54.740 383.600,55.600 383.420,55.600 383.200 C 55.600 382.980,56.140 382.800,56.800 382.800 C 57.460 382.800,58.000 382.620,58.000 382.400 C 58.000 382.180,58.360 382.000,58.800 382.000 C 59.240 382.000,59.600 381.820,59.600 381.600 C 59.600 381.380,59.960 381.200,60.400 381.200 C 60.840 381.200,61.200 381.020,61.200 380.800 C 61.200 380.580,61.740 380.400,62.400 380.400 C 63.060 380.400,63.600 380.220,63.600 380.000 C 63.600 379.780,64.320 379.600,65.200 379.600 C 66.080 379.600,66.800 379.420,66.800 379.200 C 66.800 378.980,67.160 378.800,67.600 378.800 C 68.040 378.800,68.400 378.620,68.400 378.400 C 68.400 378.180,68.940 378.000,69.600 378.000 C 70.260 378.000,70.800 377.820,70.800 377.600 C 70.800 377.380,71.160 377.200,71.600 377.200 C 72.040 377.200,72.400 377.020,72.400 376.800 C 72.400 376.580,72.760 376.400,73.200 376.400 C 73.640 376.400,74.000 376.220,74.000 376.000 C 74.000 375.780,74.900 375.600,76.000 375.600 C 77.100 375.600,78.000 375.420,78.000 375.200 C 78.000 374.980,78.360 374.800,78.800 374.800 C 79.240 374.800,79.600 374.620,79.600 374.400 C 79.600 374.180,79.960 374.000,80.400 374.000 C 80.840 374.000,81.200 373.820,81.200 373.600 C 81.200 373.380,81.740 373.200,82.400 373.200 C 83.060 373.200,83.600 373.020,83.600 372.800 C 83.600 372.580,83.960 372.400,84.400 372.400 C 84.840 372.400,85.200 372.220,85.200 372.000 C 85.200 371.780,85.920 371.600,86.800 371.600 C 87.680 371.600,88.400 371.420,88.400 371.200 C 88.400 370.980,88.940 370.800,89.600 370.800 C 90.260 370.800,90.800 370.620,90.800 370.400 C 90.800 370.180,91.160 370.000,91.600 370.000 C 92.040 370.000,92.400 369.820,92.400 369.600 C 92.400 369.380,92.900 369.200,93.512 369.200 C 94.165 369.200,94.861 368.870,95.200 368.400 C 95.638 367.792,96.235 367.600,97.688 367.600 C 98.740 367.600,99.600 367.420,99.600 367.200 C 99.600 366.980,100.140 366.800,100.800 366.800 C 101.460 366.800,102.000 366.620,102.000 366.400 C 102.000 366.180,102.360 366.000,102.800 366.000 C 103.240 366.000,103.600 365.820,103.600 365.600 C 103.600 365.380,103.960 365.200,104.400 365.200 C 104.840 365.200,105.200 365.020,105.200 364.800 C 105.200 364.580,105.740 364.400,106.400 364.400 C 107.060 364.400,107.600 364.220,107.600 364.000 C 107.600 363.780,108.320 363.600,109.200 363.600 C 110.080 363.600,110.800 363.420,110.800 363.200 C 110.800 362.980,111.160 362.800,111.600 362.800 C 112.040 362.800,112.400 362.620,112.400 362.400 C 112.400 362.180,112.940 362.000,113.600 362.000 C 114.260 362.000,114.800 361.820,114.800 361.600 C 114.800 361.380,115.160 361.200,115.600 361.200 C 116.040 361.200,116.400 361.020,116.400 360.800 C 116.400 360.580,116.760 360.400,117.200 360.400 C 117.640 360.400,118.000 360.220,118.000 360.000 C 118.000 359.780,118.900 359.600,120.000 359.600 C 121.100 359.600,122.000 359.420,122.000 359.200 C 122.000 358.980,122.360 358.800,122.800 358.800 C 123.240 358.800,123.600 358.620,123.600 358.400 C 123.600 358.180,123.960 358.000,124.400 358.000 C 124.840 358.000,125.200 357.820,125.200 357.600 C 125.200 357.380,125.740 357.200,126.400 357.200 C 127.060 357.200,127.600 357.020,127.600 356.800 C 127.600 356.580,127.960 356.400,128.400 356.400 C 128.840 356.400,129.200 356.220,129.200 356.000 C 129.200 355.780,129.920 355.600,130.800 355.600 C 131.680 355.600,132.400 355.420,132.400 355.200 C 132.400 354.980,132.940 354.800,133.600 354.800 C 134.260 354.800,134.800 354.620,134.800 354.400 C 134.800 354.180,135.160 354.000,135.600 354.000 C 136.040 354.000,136.400 353.820,136.400 353.600 C 136.400 353.380,136.900 353.200,137.512 353.200 C 138.165 353.200,138.861 352.870,139.200 352.400 C 139.638 351.792,140.235 351.600,141.688 351.600 C 142.740 351.600,143.600 351.420,143.600 351.200 C 143.600 350.980,144.140 350.800,144.800 350.800 C 145.460 350.800,146.000 350.620,146.000 350.400 C 146.000 350.180,146.360 350.000,146.800 350.000 C 147.240 350.000,147.600 349.820,147.600 349.600 C 147.600 349.380,147.960 349.200,148.400 349.200 C 148.840 349.200,149.200 349.020,149.200 348.800 C 149.200 348.580,149.740 348.400,150.400 348.400 C 151.060 348.400,151.600 348.220,151.600 348.000 C 151.600 347.780,152.320 347.600,153.200 347.600 C 154.080 347.600,154.800 347.420,154.800 347.200 C 154.800 346.980,155.160 346.800,155.600 346.800 C 156.040 346.800,156.400 346.620,156.400 346.400 C 156.400 346.180,156.940 346.000,157.600 346.000 C 158.260 346.000,158.800 345.820,158.800 345.600 C 158.800 345.380,159.160 345.200,159.600 345.200 C 160.040 345.200,160.400 345.020,160.400 344.800 C 160.400 344.580,160.760 344.400,161.200 344.400 C 161.640 344.400,162.000 344.220,162.000 344.000 C 162.000 343.780,162.900 343.600,164.000 343.600 C 165.100 343.600,166.000 343.420,166.000 343.200 C 166.000 342.980,166.360 342.800,166.800 342.800 C 167.240 342.800,167.600 342.620,167.600 342.400 C 167.600 342.180,167.960 342.000,168.400 342.000 C 168.840 342.000,169.200 341.820,169.200 341.600 C 169.200 341.380,169.740 341.200,170.400 341.200 C 171.060 341.200,171.600 341.020,171.600 340.800 C 171.600 340.580,171.960 340.400,172.400 340.400 C 172.840 340.400,173.200 340.220,173.200 340.000 C 173.200 339.780,173.920 339.600,174.800 339.600 C 175.680 339.600,176.400 339.420,176.400 339.200 C 176.400 338.980,176.940 338.800,177.600 338.800 C 178.260 338.800,178.800 338.620,178.800 338.400 C 178.800 338.180,179.160 338.000,179.600 338.000 C 180.040 338.000,180.400 337.820,180.400 337.600 C 180.400 337.380,180.760 337.200,181.200 337.200 C 181.640 337.200,182.000 337.020,182.000 336.800 C 182.000 336.580,182.360 336.400,182.800 336.400 C 183.240 336.400,183.600 336.220,183.600 336.000 C 183.600 335.780,184.243 335.600,185.029 335.600 C 186.541 335.600,187.600 334.871,187.600 333.829 C 187.600 333.397,187.224 333.200,186.400 333.200 C 185.397 333.200,185.200 333.041,185.200 332.233 C 185.200 330.381,185.582 330.000,187.439 330.000 C 188.760 330.000,189.317 329.802,189.693 329.200 C 190.223 328.351,193.200 328.012,193.200 328.800 C 193.200 329.963,196.102 329.159,197.625 327.574 C 199.957 325.147,201.746 325.366,201.922 328.100 C 202.072 330.438,202.023 330.440,204.400 328.000 C 206.301 326.048,210.000 324.991,210.000 326.400 C 210.000 326.620,210.360 326.800,210.800 326.800 C 211.240 326.800,211.600 326.620,211.600 326.400 C 211.600 326.180,211.960 326.000,212.400 326.000 C 212.840 326.000,213.200 325.820,213.200 325.600 C 213.200 325.380,213.740 325.200,214.400 325.200 C 215.060 325.200,215.600 325.020,215.600 324.800 C 215.600 324.580,215.960 324.400,216.400 324.400 C 216.840 324.400,217.200 324.220,217.200 324.000 C 217.200 323.780,217.920 323.600,218.800 323.600 C 219.680 323.600,220.400 323.420,220.400 323.200 C 220.400 322.980,220.940 322.800,221.600 322.800 C 222.260 322.800,222.800 322.620,222.800 322.400 C 222.800 322.180,223.160 322.000,223.600 322.000 C 224.040 322.000,224.400 321.820,224.400 321.600 C 224.400 321.380,224.760 321.200,225.200 321.200 C 225.640 321.200,226.000 321.020,226.000 320.800 C 226.000 320.580,226.360 320.400,226.800 320.400 C 227.240 320.400,227.600 320.220,227.600 320.000 C 227.600 319.780,228.500 319.600,229.600 319.600 C 230.700 319.600,231.600 319.420,231.600 319.200 C 231.600 318.980,231.960 318.800,232.400 318.800 C 232.840 318.800,233.200 318.620,233.200 318.400 C 233.200 318.180,233.740 318.000,234.400 318.000 C 235.060 318.000,235.600 317.820,235.600 317.600 C 235.600 317.380,235.960 317.200,236.400 317.200 C 236.840 317.200,237.200 317.020,237.200 316.800 C 237.200 316.580,237.740 316.400,238.400 316.400 C 239.060 316.400,239.600 316.220,239.600 316.000 C 239.600 315.780,240.320 315.600,241.200 315.600 C 242.080 315.600,242.800 315.420,242.800 315.200 C 242.800 314.980,243.160 314.800,243.600 314.800 C 244.040 314.800,244.400 314.620,244.400 314.400 C 244.400 314.180,244.900 314.000,245.512 314.000 C 246.165 314.000,246.861 313.670,247.200 313.200 C 247.539 312.730,248.235 312.400,248.888 312.400 C 249.500 312.400,250.000 312.220,250.000 312.000 C 250.000 311.780,250.900 311.600,252.000 311.600 C 253.100 311.600,254.000 311.420,254.000 311.200 C 254.000 310.980,254.360 310.800,254.800 310.800 C 255.240 310.800,255.600 310.620,255.600 310.400 C 255.600 310.180,255.960 310.000,256.400 310.000 C 256.840 310.000,257.200 309.820,257.200 309.600 C 257.200 309.380,257.740 309.200,258.400 309.200 C 259.060 309.200,259.600 309.020,259.600 308.800 C 259.600 308.580,259.960 308.400,260.400 308.400 C 260.840 308.400,261.200 308.220,261.200 308.000 C 261.200 307.780,261.920 307.600,262.800 307.600 C 263.680 307.600,264.400 307.420,264.400 307.200 C 264.400 306.980,264.940 306.800,265.600 306.800 C 266.260 306.800,266.800 306.620,266.800 306.400 C 266.800 306.180,267.160 306.000,267.600 306.000 C 268.040 306.000,268.400 305.820,268.400 305.600 C 268.400 305.380,268.760 305.200,269.200 305.200 C 269.640 305.200,270.000 305.020,270.000 304.800 C 270.000 304.580,270.360 304.400,270.800 304.400 C 271.240 304.400,271.600 304.220,271.600 304.000 C 271.600 303.780,272.500 303.600,273.600 303.600 C 274.700 303.600,275.600 303.420,275.600 303.200 C 275.600 302.980,275.960 302.800,276.400 302.800 C 276.840 302.800,277.200 302.620,277.200 302.400 C 277.200 302.180,277.740 302.000,278.400 302.000 C 279.060 302.000,279.600 301.820,279.600 301.600 C 279.600 301.380,279.960 301.200,280.400 301.200 C 280.840 301.200,281.200 301.020,281.200 300.800 C 281.200 300.580,281.740 300.400,282.400 300.400 C 283.060 300.400,283.600 300.220,283.600 300.000 C 283.600 299.780,284.320 299.600,285.200 299.600 C 286.080 299.600,286.800 299.420,286.800 299.200 C 286.800 298.980,287.160 298.800,287.600 298.800 C 288.040 298.800,288.400 298.620,288.400 298.400 C 288.400 298.180,288.900 298.000,289.512 298.000 C 290.165 298.000,290.861 297.670,291.200 297.200 C 291.539 296.730,292.235 296.400,292.888 296.400 C 293.500 296.400,294.000 296.220,294.000 296.000 C 294.000 295.780,294.900 295.600,296.000 295.600 C 297.100 295.600,298.000 295.420,298.000 295.200 C 298.000 294.980,298.360 294.800,298.800 294.800 C 299.240 294.800,299.600 294.620,299.600 294.400 C 299.600 294.180,299.960 294.000,300.400 294.000 C 300.840 294.000,301.200 293.820,301.200 293.600 C 301.200 293.380,301.740 293.200,302.400 293.200 C 303.060 293.200,303.600 293.020,303.600 292.800 C 303.600 292.580,303.960 292.400,304.400 292.400 C 304.840 292.400,305.200 292.220,305.200 292.000 C 305.200 291.780,305.920 291.600,306.800 291.600 C 307.680 291.600,308.400 291.420,308.400 291.200 C 308.400 290.980,308.940 290.800,309.600 290.800 C 310.260 290.800,310.800 290.620,310.800 290.400 C 310.800 290.180,311.160 290.000,311.600 290.000 C 312.040 290.000,312.400 289.820,312.400 289.600 C 312.400 289.380,312.760 289.200,313.200 289.200 C 313.640 289.200,314.000 289.020,314.000 288.800 C 314.000 288.580,314.360 288.400,314.800 288.400 C 315.240 288.400,315.600 288.220,315.600 288.000 C 315.600 287.780,316.500 287.600,317.600 287.600 C 318.700 287.600,319.600 287.420,319.600 287.200 C 319.600 286.980,319.960 286.800,320.400 286.800 C 320.840 286.800,321.200 286.620,321.200 286.400 C 321.200 286.180,321.740 286.000,322.400 286.000 C 323.060 286.000,323.600 285.820,323.600 285.600 C 323.600 285.380,323.960 285.200,324.400 285.200 C 324.840 285.200,325.200 285.020,325.200 284.800 C 325.200 284.580,325.740 284.400,326.400 284.400 C 327.060 284.400,327.600 284.220,327.600 284.000 C 327.600 283.780,328.320 283.600,329.200 283.600 C 330.080 283.600,330.800 283.420,330.800 283.200 C 330.800 282.980,331.160 282.800,331.600 282.800 C 332.040 282.800,332.400 282.620,332.400 282.400 C 332.400 282.180,332.900 282.000,333.512 282.000 C 334.165 282.000,334.861 281.670,335.200 281.200 C 335.539 280.730,336.235 280.400,336.888 280.400 C 337.500 280.400,338.000 280.220,338.000 280.000 C 338.000 279.780,338.900 279.600,340.000 279.600 C 341.100 279.600,342.000 279.420,342.000 279.200 C 342.000 278.980,342.360 278.800,342.800 278.800 C 343.240 278.800,343.600 278.620,343.600 278.400 C 343.600 278.180,343.960 278.000,344.400 278.000 C 344.840 278.000,345.200 277.820,345.200 277.600 C 345.200 277.380,345.700 277.200,346.312 277.200 C 346.965 277.200,347.661 276.870,348.000 276.400 C 348.438 275.792,349.035 275.600,350.488 275.600 C 351.540 275.600,352.400 275.420,352.400 275.200 C 352.400 274.980,352.900 274.800,353.512 274.800 C 354.165 274.800,354.861 274.470,355.200 274.000 C 355.539 273.530,356.235 273.200,356.888 273.200 C 357.500 273.200,358.000 273.020,358.000 272.800 C 358.000 272.580,358.360 272.400,358.800 272.400 C 359.240 272.400,359.600 272.220,359.600 272.000 C 359.600 271.780,360.500 271.600,361.600 271.600 C 362.700 271.600,363.600 271.420,363.600 271.200 C 363.600 270.980,363.960 270.800,364.400 270.800 C 364.840 270.800,365.200 270.620,365.200 270.400 C 365.200 270.180,365.740 270.000,366.400 270.000 C 367.060 270.000,367.600 269.820,367.600 269.600 C 367.600 269.380,367.960 269.200,368.400 269.200 C 368.840 269.200,369.200 269.020,369.200 268.800 C 369.200 268.580,369.560 268.400,370.000 268.400 C 370.440 268.400,370.800 268.220,370.800 268.000 C 370.800 267.780,371.700 267.600,372.800 267.600 C 373.900 267.600,374.800 267.420,374.800 267.200 C 374.800 266.980,375.160 266.800,375.600 266.800 C 376.040 266.800,376.400 266.620,376.400 266.400 C 376.400 266.180,376.760 266.000,377.200 266.000 C 377.640 266.000,378.000 265.820,378.000 265.600 C 378.000 265.380,378.360 265.200,378.800 265.200 C 379.240 265.200,379.600 265.020,379.600 264.800 C 379.600 264.580,380.140 264.400,380.800 264.400 C 381.460 264.400,382.000 264.220,382.000 264.000 C 382.000 263.780,382.720 263.600,383.600 263.600 C 384.480 263.600,385.200 263.420,385.200 263.200 C 385.200 262.980,385.740 262.800,386.400 262.800 C 387.060 262.800,387.600 262.620,387.600 262.400 C 387.600 262.180,387.960 262.000,388.400 262.000 C 388.840 262.000,389.200 261.820,389.200 261.600 C 389.200 261.380,389.700 261.200,390.312 261.200 C 390.965 261.200,391.661 260.870,392.000 260.400 C 392.438 259.792,393.035 259.600,394.488 259.600 C 395.540 259.600,396.400 259.420,396.400 259.200 C 396.400 258.980,396.940 258.800,397.600 258.800 C 398.260 258.800,398.800 258.620,398.800 258.400 C 398.800 258.180,399.070 258.000,399.400 258.000 C 399.932 258.000,400.000 247.156,400.000 162.800 L 400.000 67.600 398.600 67.600 C 397.830 67.600,397.200 67.780,397.200 68.000 M276.400 112.000 C 276.400 112.220,276.040 112.400,275.600 112.400 C 275.160 112.400,274.800 112.580,274.800 112.800 C 274.800 113.020,274.260 113.200,273.600 113.200 C 272.940 113.200,272.400 113.380,272.400 113.600 C 272.400 113.820,272.040 114.000,271.600 114.000 C 271.160 114.000,270.800 114.180,270.800 114.400 C 270.800 114.620,270.440 114.800,270.000 114.800 C 269.560 114.800,269.200 114.980,269.200 115.200 C 269.200 115.420,268.300 115.600,267.200 115.600 C 266.100 115.600,265.200 115.780,265.200 116.000 C 265.200 116.220,264.840 116.400,264.400 116.400 C 263.960 116.400,263.600 116.580,263.600 116.800 C 263.600 117.020,263.240 117.200,262.800 117.200 C 262.360 117.200,262.000 117.380,262.000 117.600 C 262.000 117.820,261.460 118.000,260.800 118.000 C 260.140 118.000,259.600 118.180,259.600 118.400 C 259.600 118.620,259.240 118.800,258.800 118.800 C 258.360 118.800,258.000 118.980,258.000 119.200 C 258.000 119.420,257.280 119.600,256.400 119.600 C 255.520 119.600,254.800 119.780,254.800 120.000 C 254.800 120.220,254.260 120.400,253.600 120.400 C 252.940 120.400,252.400 120.580,252.400 120.800 C 252.400 121.020,252.040 121.200,251.600 121.200 C 251.160 121.200,250.800 121.380,250.800 121.600 C 250.800 121.820,250.300 122.000,249.688 122.000 C 249.035 122.000,248.339 122.330,248.000 122.800 C 247.562 123.408,246.965 123.600,245.512 123.600 C 244.460 123.600,243.600 123.780,243.600 124.000 C 243.600 124.220,243.060 124.400,242.400 124.400 C 241.740 124.400,241.200 124.580,241.200 124.800 C 241.200 125.020,240.840 125.200,240.400 125.200 C 239.960 125.200,239.600 125.380,239.600 125.600 C 239.600 125.820,239.240 126.000,238.800 126.000 C 238.360 126.000,238.000 126.180,238.000 126.400 C 238.000 126.620,237.460 126.800,236.800 126.800 C 236.140 126.800,235.600 126.980,235.600 127.200 C 235.600 127.420,234.880 127.600,234.000 127.600 C 233.120 127.600,232.400 127.780,232.400 128.000 C 232.400 128.220,232.040 128.400,231.600 128.400 C 231.160 128.400,230.800 128.580,230.800 128.800 C 230.800 129.020,230.260 129.200,229.600 129.200 C 228.940 129.200,228.400 129.380,228.400 129.600 C 228.400 129.820,228.040 130.000,227.600 130.000 C 227.160 130.000,226.800 130.180,226.800 130.400 C 226.800 130.620,226.440 130.800,226.000 130.800 C 225.560 130.800,225.200 130.980,225.200 131.200 C 225.200 131.420,224.300 131.600,223.200 131.600 C 222.100 131.600,221.200 131.780,221.200 132.000 C 221.200 132.220,220.930 132.400,220.600 132.400 C 219.744 132.400,219.854 132.906,221.000 134.238 C 221.549 134.877,221.999 135.625,222.000 135.900 C 222.000 136.175,222.153 136.400,222.340 136.400 C 222.527 136.400,223.266 137.615,223.982 139.100 C 224.698 140.585,225.445 142.113,225.642 142.495 C 225.839 142.877,226.000 143.541,226.000 143.971 C 226.000 144.401,226.160 144.852,226.356 144.973 C 227.655 145.775,228.277 159.344,227.211 163.600 C 227.018 164.370,226.647 166.080,226.387 167.400 C 226.127 168.720,225.775 170.250,225.604 170.800 C 225.433 171.350,225.070 172.610,224.799 173.600 C 222.467 182.092,216.359 193.797,209.734 202.470 C 207.394 205.532,207.108 205.094,214.436 209.653 C 222.363 214.583,221.933 214.424,228.022 214.684 C 235.264 214.994,235.382 214.957,236.209 212.099 C 240.126 198.569,246.631 185.693,258.794 167.400 C 262.535 161.774,265.752 156.653,268.091 152.600 C 270.203 148.941,274.800 139.094,274.800 138.228 C 274.800 137.909,274.980 137.536,275.200 137.400 C 275.420 137.264,275.600 136.801,275.600 136.371 C 275.600 135.941,275.758 135.277,275.951 134.895 C 276.568 133.673,277.200 131.374,277.200 130.352 C 277.200 129.806,277.364 129.189,277.565 128.980 C 278.075 128.448,278.424 124.819,278.647 117.700 L 278.839 111.600 277.620 111.600 C 276.949 111.600,276.400 111.780,276.400 112.000 M195.600 141.600 C 195.600 141.820,195.240 142.000,194.800 142.000 C 194.360 142.000,194.000 142.180,194.000 142.400 C 194.000 142.620,193.460 142.800,192.800 142.800 C 192.140 142.800,191.600 142.980,191.600 143.200 C 191.600 143.420,190.880 143.600,190.000 143.600 C 189.120 143.600,188.400 143.780,188.400 144.000 C 188.400 144.220,188.040 144.400,187.600 144.400 C 187.160 144.400,186.800 144.580,186.800 144.800 C 186.800 145.379,185.305 145.293,185.060 144.700 C 184.935 144.397,184.746 144.555,184.580 145.100 C 184.430 145.595,184.013 146.002,183.653 146.005 C 182.999 146.010,181.857 147.554,180.846 149.800 C 180.550 150.460,180.148 151.313,179.953 151.695 C 179.759 152.077,179.600 153.371,179.600 154.571 C 179.600 155.771,179.400 156.876,179.156 157.027 C 178.701 157.308,178.808 159.139,179.585 164.400 C 180.264 168.997,180.481 170.003,180.844 170.227 C 181.040 170.348,181.200 170.876,181.200 171.400 C 181.200 171.924,181.380 172.464,181.600 172.600 C 181.820 172.736,182.000 173.124,182.000 173.463 C 182.000 176.085,192.083 192.091,193.272 191.356 C 195.150 190.195,201.474 179.636,203.548 174.200 C 204.052 172.880,204.630 171.487,204.832 171.105 C 205.034 170.723,205.200 170.059,205.200 169.629 C 205.200 169.199,205.380 168.736,205.600 168.600 C 205.820 168.464,206.000 167.834,206.000 167.200 C 206.000 166.566,206.180 165.936,206.400 165.800 C 206.620 165.664,206.800 164.922,206.800 164.150 C 206.800 163.379,206.989 162.395,207.219 161.964 C 207.753 160.966,207.808 151.965,207.286 150.958 C 207.070 150.541,206.652 149.687,206.358 149.060 C 205.068 146.316,199.706 142.000,197.586 142.000 C 197.180 142.000,196.736 141.820,196.600 141.600 C 196.464 141.380,196.183 141.200,195.976 141.200 C 195.769 141.200,195.600 141.380,195.600 141.600 M155.600 156.000 C 155.600 156.220,155.240 156.400,154.800 156.400 C 154.360 156.400,154.000 156.580,154.000 156.800 C 154.000 157.020,153.460 157.200,152.800 157.200 C 152.140 157.200,151.600 157.380,151.600 157.600 C 151.600 157.820,151.240 158.000,150.800 158.000 C 150.360 158.000,150.000 158.180,150.000 158.400 C 150.000 158.620,149.460 158.800,148.800 158.800 C 148.140 158.800,147.600 158.980,147.600 159.200 C 147.600 159.420,146.880 159.600,146.000 159.600 C 145.120 159.600,144.400 159.780,144.400 160.000 C 144.400 160.220,144.040 160.400,143.600 160.400 C 143.160 160.400,142.800 160.580,142.800 160.800 C 142.800 161.020,142.300 161.200,141.688 161.200 C 141.035 161.200,140.339 161.530,140.000 162.000 C 139.661 162.470,138.965 162.800,138.312 162.800 C 137.700 162.800,137.200 162.980,137.200 163.200 C 137.200 163.420,136.300 163.600,135.200 163.600 C 134.100 163.600,133.200 163.780,133.200 164.000 C 133.200 164.220,132.840 164.400,132.400 164.400 C 131.960 164.400,131.600 164.580,131.600 164.800 C 131.600 165.020,131.240 165.200,130.800 165.200 C 129.575 165.200,129.591 166.794,130.828 168.123 C 131.253 168.578,131.600 169.187,131.600 169.475 C 131.600 169.764,131.759 170.000,131.953 170.000 C 132.148 170.000,132.407 170.315,132.529 170.700 C 132.817 171.609,134.012 173.553,134.900 174.558 C 135.285 174.994,135.600 175.509,135.600 175.703 C 135.600 175.897,136.140 176.841,136.800 177.800 C 137.460 178.759,138.000 179.737,138.000 179.972 C 138.000 180.207,138.159 180.400,138.353 180.400 C 138.548 180.400,138.810 180.715,138.936 181.100 C 139.062 181.485,139.710 182.700,140.376 183.800 C 143.036 188.191,148.530 199.758,149.970 204.000 C 150.455 205.430,151.014 206.960,151.211 207.400 C 151.409 207.840,151.965 209.595,152.447 211.300 L 153.323 214.400 158.923 214.400 L 164.523 214.400 167.162 212.930 C 168.613 212.121,171.820 210.117,174.289 208.475 L 178.777 205.492 177.908 204.246 C 177.430 203.561,176.200 202.010,175.175 200.800 C 171.430 196.379,167.437 189.841,164.791 183.800 C 164.310 182.700,163.679 181.260,163.391 180.600 C 163.102 179.940,162.649 178.680,162.384 177.800 C 162.119 176.920,161.744 175.887,161.551 175.505 C 161.358 175.123,161.200 174.369,161.200 173.829 C 161.200 173.289,161.020 172.736,160.800 172.600 C 160.580 172.464,160.400 171.679,160.400 170.856 C 160.400 170.033,160.235 169.189,160.034 168.980 C 159.630 168.561,159.277 165.455,158.957 159.500 L 158.747 155.600 157.173 155.600 C 156.308 155.600,155.600 155.780,155.600 156.000 M164.270 234.385 L 156.740 234.600 156.784 248.615 C 156.828 262.732,157.097 265.830,158.419 267.423 C 159.132 268.283,229.650 268.293,230.510 267.433 C 231.207 266.736,232.120 262.612,231.935 260.991 L 231.800 259.800 211.600 259.600 C 189.380 259.380,190.456 259.505,187.743 256.829 C 183.079 252.229,184.274 244.328,190.070 241.440 L 192.157 240.400 212.254 240.400 L 232.351 240.400 232.608 238.689 C 232.749 237.749,232.805 236.354,232.732 235.589 L 232.600 234.200 202.200 234.185 C 185.480 234.177,168.411 234.267,164.270 234.385 M177.643 289.103 C 187.658 299.949,199.756 300.522,209.591 290.616 L 212.982 287.200 194.435 287.200 L 175.887 287.200 177.643 289.103 " stroke="none" fill="#60f9d1" fill-rule="evenodd"></path><path id="path2" d="M0.000 106.200 C 0.000 200.333,0.068 212.400,0.600 212.400 C 0.930 212.400,1.200 212.220,1.200 212.000 C 1.200 211.780,2.100 211.600,3.200 211.600 C 4.300 211.600,5.200 211.420,5.200 211.200 C 5.200 210.980,5.700 210.800,6.312 210.800 C 6.965 210.800,7.661 210.470,8.000 210.000 C 8.339 209.530,9.035 209.200,9.688 209.200 C 10.300 209.200,10.800 209.020,10.800 208.800 C 10.800 208.580,11.160 208.400,11.600 208.400 C 12.040 208.400,12.400 208.220,12.400 208.000 C 12.400 207.780,13.120 207.600,14.000 207.600 C 14.880 207.600,15.600 207.420,15.600 207.200 C 15.600 206.980,16.140 206.800,16.800 206.800 C 17.460 206.800,18.000 206.620,18.000 206.400 C 18.000 206.180,18.360 206.000,18.800 206.000 C 19.240 206.000,19.600 205.820,19.600 205.600 C 19.600 205.380,20.140 205.200,20.800 205.200 C 21.460 205.200,22.000 205.020,22.000 204.800 C 22.000 204.580,22.360 204.400,22.800 204.400 C 23.240 204.400,23.600 204.220,23.600 204.000 C 23.600 203.780,24.500 203.600,25.600 203.600 C 26.700 203.600,27.600 203.420,27.600 203.200 C 27.600 202.980,27.960 202.800,28.400 202.800 C 28.840 202.800,29.200 202.620,29.200 202.400 C 29.200 202.180,29.560 202.000,30.000 202.000 C 30.440 202.000,30.800 201.820,30.800 201.600 C 30.800 201.380,31.160 201.200,31.600 201.200 C 32.040 201.200,32.400 201.020,32.400 200.800 C 32.400 200.580,32.940 200.400,33.600 200.400 C 34.260 200.400,34.800 200.220,34.800 200.000 C 34.800 199.780,35.520 199.600,36.400 199.600 C 37.280 199.600,38.000 199.420,38.000 199.200 C 38.000 198.980,38.360 198.800,38.800 198.800 C 39.240 198.800,39.600 198.620,39.600 198.400 C 39.600 198.180,40.140 198.000,40.800 198.000 C 41.460 198.000,42.000 197.820,42.000 197.600 C 42.000 197.380,42.360 197.200,42.800 197.200 C 43.240 197.200,43.600 197.020,43.600 196.800 C 43.600 196.580,43.960 196.400,44.400 196.400 C 44.840 196.400,45.200 196.220,45.200 196.000 C 45.200 195.780,46.100 195.600,47.200 195.600 C 48.300 195.600,49.200 195.420,49.200 195.200 C 49.200 194.980,49.700 194.800,50.312 194.800 C 50.965 194.800,51.661 194.470,52.000 194.000 C 52.339 193.530,53.035 193.200,53.688 193.200 C 54.300 193.200,54.800 193.020,54.800 192.800 C 54.800 192.580,55.160 192.400,55.600 192.400 C 56.040 192.400,56.400 192.220,56.400 192.000 C 56.400 191.780,57.120 191.600,58.000 191.600 C 58.880 191.600,59.600 191.420,59.600 191.200 C 59.600 190.980,60.140 190.800,60.800 190.800 C 61.460 190.800,62.000 190.620,62.000 190.400 C 62.000 190.180,62.360 190.000,62.800 190.000 C 63.240 190.000,63.600 189.820,63.600 189.600 C 63.600 189.380,64.140 189.200,64.800 189.200 C 65.460 189.200,66.000 189.020,66.000 188.800 C 66.000 188.580,66.360 188.400,66.800 188.400 C 67.240 188.400,67.600 188.220,67.600 188.000 C 67.600 187.780,68.500 187.600,69.600 187.600 C 70.700 187.600,71.600 187.420,71.600 187.200 C 71.600 186.980,71.960 186.800,72.400 186.800 C 72.840 186.800,73.200 186.620,73.200 186.400 C 73.200 186.180,73.560 186.000,74.000 186.000 C 74.440 186.000,74.800 185.820,74.800 185.600 C 74.800 185.380,75.160 185.200,75.600 185.200 C 76.040 185.200,76.400 185.020,76.400 184.800 C 76.400 184.580,76.940 184.400,77.600 184.400 C 78.260 184.400,78.800 184.220,78.800 184.000 C 78.800 183.780,79.520 183.600,80.400 183.600 C 81.280 183.600,82.000 183.420,82.000 183.200 C 82.000 182.980,82.360 182.800,82.800 182.800 C 83.240 182.800,83.600 182.620,83.600 182.400 C 83.600 182.180,84.140 182.000,84.800 182.000 C 85.460 182.000,86.000 181.820,86.000 181.600 C 86.000 181.380,86.360 181.200,86.800 181.200 C 87.240 181.200,87.600 181.020,87.600 180.800 C 87.600 180.580,87.960 180.400,88.400 180.400 C 88.840 180.400,89.200 180.220,89.200 180.000 C 89.200 179.780,90.100 179.600,91.200 179.600 C 92.300 179.600,93.200 179.420,93.200 179.200 C 93.200 178.980,93.700 178.800,94.312 178.800 C 94.965 178.800,95.661 178.470,96.000 178.000 C 96.339 177.530,97.035 177.200,97.688 177.200 C 98.300 177.200,98.800 177.020,98.800 176.800 C 98.800 176.580,99.160 176.400,99.600 176.400 C 100.040 176.400,100.400 176.220,100.400 176.000 C 100.400 175.780,101.120 175.600,102.000 175.600 C 102.880 175.600,103.600 175.420,103.600 175.200 C 103.600 174.980,104.140 174.800,104.800 174.800 C 105.460 174.800,106.000 174.620,106.000 174.400 C 106.000 174.180,106.360 174.000,106.800 174.000 C 107.240 174.000,107.600 173.820,107.600 173.600 C 107.600 172.563,109.940 173.217,110.464 174.400 C 110.756 175.060,111.131 175.600,111.298 175.600 C 111.464 175.600,111.600 175.836,111.600 176.125 C 111.600 176.413,111.960 177.036,112.400 177.508 C 112.840 177.980,113.207 178.509,113.216 178.683 C 113.225 178.857,113.765 179.623,114.416 180.385 C 115.067 181.147,115.600 181.919,115.600 182.102 C 115.600 182.284,115.986 182.831,116.459 183.317 C 117.563 184.453,117.340 184.073,113.090 177.600 C 110.584 173.782,109.348 172.234,108.872 172.317 C 108.354 172.407,108.323 172.350,108.736 172.071 C 109.157 171.786,108.816 170.981,107.164 168.354 C 90.604 142.012,86.028 117.531,92.817 91.600 C 93.809 87.812,94.873 84.118,95.178 83.400 C 95.366 82.960,95.736 81.970,96.000 81.200 C 98.170 74.881,102.469 66.453,106.884 59.861 C 111.777 52.556,117.970 45.489,124.740 39.488 C 128.268 36.359,134.886 31.387,137.326 30.032 C 138.165 29.566,139.306 28.887,139.862 28.523 C 140.417 28.159,141.441 27.527,142.136 27.120 C 143.402 26.377,151.808 22.274,153.500 21.573 C 153.995 21.368,154.895 20.999,155.500 20.753 C 156.105 20.508,156.913 20.148,157.295 19.953 C 157.677 19.759,158.341 19.600,158.771 19.600 C 159.201 19.600,159.664 19.420,159.800 19.200 C 159.936 18.980,160.476 18.800,161.000 18.800 C 161.524 18.800,162.051 18.641,162.171 18.446 C 162.292 18.251,162.887 17.996,163.495 17.879 C 164.103 17.762,165.320 17.459,166.200 17.206 C 180.924 12.978,200.161 12.265,215.000 15.398 C 220.715 16.605,231.457 19.784,233.295 20.811 C 233.677 21.025,234.167 21.200,234.385 21.200 C 234.602 21.200,235.959 21.740,237.400 22.400 C 238.841 23.060,240.082 23.600,240.159 23.600 C 240.720 23.600,248.812 28.402,253.448 31.486 C 279.265 48.658,296.239 77.320,298.524 107.600 C 298.615 108.794,298.684 108.424,298.730 106.500 L 298.800 103.600 300.400 103.600 C 301.280 103.600,302.000 103.420,302.000 103.200 C 302.000 102.980,302.360 102.800,302.800 102.800 C 303.240 102.800,303.600 102.620,303.600 102.400 C 303.600 102.180,304.140 102.000,304.800 102.000 C 305.460 102.000,306.000 101.820,306.000 101.600 C 306.000 101.380,306.360 101.200,306.800 101.200 C 307.240 101.200,307.600 101.020,307.600 100.800 C 307.600 100.580,307.960 100.400,308.400 100.400 C 308.840 100.400,309.200 100.220,309.200 100.000 C 309.200 99.780,310.100 99.600,311.200 99.600 C 312.300 99.600,313.200 99.420,313.200 99.200 C 313.200 98.980,313.560 98.800,314.000 98.800 C 314.440 98.800,314.800 98.620,314.800 98.400 C 314.800 98.180,315.160 98.000,315.600 98.000 C 316.040 98.000,316.400 97.820,316.400 97.600 C 316.400 97.380,316.940 97.200,317.600 97.200 C 318.260 97.200,318.800 97.020,318.800 96.800 C 318.800 96.580,319.160 96.400,319.600 96.400 C 320.040 96.400,320.400 96.220,320.400 96.000 C 320.400 95.780,321.120 95.600,322.000 95.600 C 322.880 95.600,323.600 95.420,323.600 95.200 C 323.600 94.980,324.140 94.800,324.800 94.800 C 325.460 94.800,326.000 94.620,326.000 94.400 C 326.000 94.180,326.360 94.000,326.800 94.000 C 327.240 94.000,327.600 93.820,327.600 93.600 C 327.600 93.380,327.960 93.200,328.400 93.200 C 328.840 93.200,329.200 93.020,329.200 92.800 C 329.200 92.580,329.740 92.400,330.400 92.400 C 331.060 92.400,331.600 92.220,331.600 92.000 C 331.600 91.780,332.460 91.600,333.512 91.600 C 334.965 91.600,335.562 91.408,336.000 90.800 C 336.339 90.330,337.035 90.000,337.688 90.000 C 338.300 90.000,338.800 89.820,338.800 89.600 C 338.800 89.380,339.160 89.200,339.600 89.200 C 340.040 89.200,340.400 89.020,340.400 88.800 C 340.400 88.580,340.940 88.400,341.600 88.400 C 342.260 88.400,342.800 88.220,342.800 88.000 C 342.800 87.780,343.520 87.600,344.400 87.600 C 345.280 87.600,346.000 87.420,346.000 87.200 C 346.000 86.980,346.360 86.800,346.800 86.800 C 347.240 86.800,347.600 86.620,347.600 86.400 C 347.600 86.180,348.140 86.000,348.800 86.000 C 349.460 86.000,350.000 85.820,350.000 85.600 C 350.000 85.380,350.360 85.200,350.800 85.200 C 351.240 85.200,351.600 85.020,351.600 84.800 C 351.600 84.580,351.960 84.400,352.400 84.400 C 352.840 84.400,353.200 84.220,353.200 84.000 C 353.200 83.780,354.100 83.600,355.200 83.600 C 356.300 83.600,357.200 83.420,357.200 83.200 C 357.200 82.980,357.560 82.800,358.000 82.800 C 358.440 82.800,358.800 82.620,358.800 82.400 C 358.800 82.180,359.160 82.000,359.600 82.000 C 360.040 82.000,360.400 81.820,360.400 81.600 C 360.400 81.380,360.900 81.200,361.512 81.200 C 362.165 81.200,362.861 80.870,363.200 80.400 C 363.638 79.792,364.235 79.600,365.688 79.600 C 366.740 79.600,367.600 79.420,367.600 79.200 C 367.600 78.980,368.140 78.800,368.800 78.800 C 369.460 78.800,370.000 78.620,370.000 78.400 C 370.000 78.180,370.360 78.000,370.800 78.000 C 371.240 78.000,371.600 77.820,371.600 77.600 C 371.600 77.380,371.960 77.200,372.400 77.200 C 372.840 77.200,373.200 77.020,373.200 76.800 C 373.200 76.580,373.740 76.400,374.400 76.400 C 375.060 76.400,375.600 76.220,375.600 76.000 C 375.600 75.780,376.320 75.600,377.200 75.600 C 378.080 75.600,378.800 75.420,378.800 75.200 C 378.800 74.980,379.160 74.800,379.600 74.800 C 380.040 74.800,380.400 74.620,380.400 74.400 C 380.400 74.180,380.940 74.000,381.600 74.000 C 382.260 74.000,382.800 73.820,382.800 73.600 C 382.800 73.380,383.160 73.200,383.600 73.200 C 384.040 73.200,384.400 73.020,384.400 72.800 C 384.400 72.580,384.760 72.400,385.200 72.400 C 385.640 72.400,386.000 72.220,386.000 72.000 C 386.000 71.780,386.900 71.600,388.000 71.600 C 389.100 71.600,390.000 71.420,390.000 71.200 C 390.000 70.980,390.360 70.800,390.800 70.800 C 391.240 70.800,391.600 70.620,391.600 70.400 C 391.600 70.180,391.960 70.000,392.400 70.000 C 392.840 70.000,393.200 69.820,393.200 69.600 C 393.200 69.380,393.740 69.200,394.400 69.200 C 395.060 69.200,395.600 69.020,395.600 68.800 C 395.600 68.580,395.960 68.400,396.400 68.400 C 396.840 68.400,397.200 68.220,397.200 68.000 C 397.200 67.780,397.830 67.600,398.600 67.600 L 400.000 67.600 400.000 33.800 L 400.000 0.000 200.000 0.000 L 0.000 0.000 0.000 106.200 M185.000 33.665 C 182.394 33.997,180.981 34.244,175.800 35.275 C 172.287 35.974,166.548 37.631,164.200 38.625 C 163.540 38.904,161.740 39.633,160.200 40.243 C 157.180 41.441,152.055 44.045,150.338 45.253 C 149.754 45.664,149.161 46.000,149.020 46.000 C 148.026 46.000,138.749 53.179,134.648 57.123 C 125.015 66.384,116.478 80.183,113.194 91.800 C 106.154 116.708,109.272 135.242,124.531 159.200 C 126.843 162.830,129.853 167.562,131.219 169.715 C 132.585 171.868,133.789 173.544,133.895 173.438 C 134.001 173.333,133.708 172.713,133.244 172.061 C 132.780 171.410,132.400 170.679,132.400 170.438 C 132.400 170.197,132.220 170.000,132.000 170.000 C 131.780 170.000,131.600 169.764,131.600 169.475 C 131.600 169.187,131.253 168.578,130.828 168.123 C 129.591 166.794,129.575 165.200,130.800 165.200 C 131.240 165.200,131.600 165.020,131.600 164.800 C 131.600 164.580,131.960 164.400,132.400 164.400 C 132.840 164.400,133.200 164.220,133.200 164.000 C 133.200 163.780,134.100 163.600,135.200 163.600 C 136.300 163.600,137.200 163.420,137.200 163.200 C 137.200 162.980,137.700 162.800,138.312 162.800 C 138.965 162.800,139.661 162.470,140.000 162.000 C 140.339 161.530,141.035 161.200,141.688 161.200 C 142.300 161.200,142.800 161.020,142.800 160.800 C 142.800 160.580,143.160 160.400,143.600 160.400 C 144.040 160.400,144.400 160.220,144.400 160.000 C 144.400 159.780,145.120 159.600,146.000 159.600 C 146.880 159.600,147.600 159.420,147.600 159.200 C 147.600 158.980,148.140 158.800,148.800 158.800 C 149.460 158.800,150.000 158.620,150.000 158.400 C 150.000 158.180,150.360 158.000,150.800 158.000 C 151.240 158.000,151.600 157.820,151.600 157.600 C 151.600 157.380,152.140 157.200,152.800 157.200 C 153.460 157.200,154.000 157.020,154.000 156.800 C 154.000 156.580,154.360 156.400,154.800 156.400 C 155.240 156.400,155.600 156.220,155.600 156.000 C 155.600 155.780,156.320 155.600,157.200 155.600 L 158.800 155.600 158.806 159.300 C 158.809 161.335,158.944 163.207,159.106 163.459 C 159.268 163.712,159.425 161.102,159.456 157.659 C 159.557 146.385,162.286 139.028,168.951 132.066 C 185.249 115.043,213.186 118.982,223.933 139.818 C 224.609 141.128,225.170 142.000,225.181 141.756 C 225.210 141.089,222.717 136.400,222.333 136.400 C 222.150 136.400,222.000 136.175,222.000 135.900 C 221.999 135.625,221.549 134.877,221.000 134.238 C 219.854 132.906,219.744 132.400,220.600 132.400 C 220.930 132.400,221.200 132.220,221.200 132.000 C 221.200 131.780,222.100 131.600,223.200 131.600 C 224.300 131.600,225.200 131.420,225.200 131.200 C 225.200 130.980,225.560 130.800,226.000 130.800 C 226.440 130.800,226.800 130.620,226.800 130.400 C 226.800 130.180,227.160 130.000,227.600 130.000 C 228.040 130.000,228.400 129.820,228.400 129.600 C 228.400 129.380,228.940 129.200,229.600 129.200 C 230.260 129.200,230.800 129.020,230.800 128.800 C 230.800 128.580,231.160 128.400,231.600 128.400 C 232.040 128.400,232.400 128.220,232.400 128.000 C 232.400 127.780,233.120 127.600,234.000 127.600 C 234.880 127.600,235.600 127.420,235.600 127.200 C 235.600 126.980,236.140 126.800,236.800 126.800 C 237.460 126.800,238.000 126.620,238.000 126.400 C 238.000 126.180,238.360 126.000,238.800 126.000 C 239.240 126.000,239.600 125.820,239.600 125.600 C 239.600 125.380,239.960 125.200,240.400 125.200 C 240.840 125.200,241.200 125.020,241.200 124.800 C 241.200 124.580,241.740 124.400,242.400 124.400 C 243.060 124.400,243.600 124.220,243.600 124.000 C 243.600 123.780,244.460 123.600,245.512 123.600 C 246.965 123.600,247.562 123.408,248.000 122.800 C 248.339 122.330,249.035 122.000,249.688 122.000 C 250.300 122.000,250.800 121.820,250.800 121.600 C 250.800 121.380,251.160 121.200,251.600 121.200 C 252.040 121.200,252.400 121.020,252.400 120.800 C 252.400 120.580,252.940 120.400,253.600 120.400 C 254.260 120.400,254.800 120.220,254.800 120.000 C 254.800 119.780,255.520 119.600,256.400 119.600 C 257.280 119.600,258.000 119.420,258.000 119.200 C 258.000 118.980,258.360 118.800,258.800 118.800 C 259.240 118.800,259.600 118.620,259.600 118.400 C 259.600 118.180,260.140 118.000,260.800 118.000 C 261.460 118.000,262.000 117.820,262.000 117.600 C 262.000 117.380,262.360 117.200,262.800 117.200 C 263.240 117.200,263.600 117.020,263.600 116.800 C 263.600 116.580,263.960 116.400,264.400 116.400 C 264.840 116.400,265.200 116.220,265.200 116.000 C 265.200 115.780,266.100 115.600,267.200 115.600 C 268.300 115.600,269.200 115.420,269.200 115.200 C 269.200 114.980,269.560 114.800,270.000 114.800 C 270.440 114.800,270.800 114.620,270.800 114.400 C 270.800 114.180,271.160 114.000,271.600 114.000 C 272.040 114.000,272.400 113.820,272.400 113.600 C 272.400 113.380,272.940 113.200,273.600 113.200 C 274.260 113.200,274.800 113.020,274.800 112.800 C 274.800 112.580,275.160 112.400,275.600 112.400 C 276.040 112.400,276.400 112.220,276.400 112.000 C 276.400 111.780,276.935 111.600,277.588 111.600 L 278.776 111.600 278.901 116.700 L 279.026 121.800 279.110 116.000 C 279.536 86.427,263.780 59.688,236.725 44.073 C 233.559 42.246,226.016 38.800,225.182 38.800 C 224.966 38.800,224.477 38.629,224.095 38.419 C 222.394 37.486,215.447 35.582,209.600 34.446 C 203.385 33.238,191.353 32.856,185.000 33.665 M216.800 44.660 C 223.144 46.774,234.333 52.441,239.600 56.210 C 257.127 68.750,271.181 89.350,267.780 97.513 C 265.615 102.710,259.465 105.049,254.487 102.569 C 251.950 101.304,250.639 99.684,248.295 94.916 C 240.995 80.071,226.048 67.939,208.461 62.584 C 201.274 60.396,198.975 51.853,204.125 46.466 C 207.356 43.086,210.660 42.615,216.800 44.660 M298.470 122.600 C 298.426 123.700,298.289 125.050,298.167 125.600 C 297.977 126.454,298.010 126.498,298.392 125.900 C 298.640 125.512,298.776 124.174,298.696 122.900 L 298.551 120.600 298.470 122.600 M278.249 124.215 C 278.112 124.573,278.020 125.436,278.044 126.133 C 278.082 127.237,278.133 127.171,278.436 125.625 C 278.793 123.805,278.694 123.057,278.249 124.215 M297.660 128.867 C 297.627 129.454,297.496 130.264,297.370 130.667 C 297.152 131.360,297.165 131.361,297.595 130.690 C 297.846 130.299,297.977 129.489,297.886 128.890 L 297.720 127.800 297.660 128.867 M277.467 129.067 C 277.320 129.213,277.215 129.798,277.234 130.367 C 277.268 131.381,277.275 131.379,277.621 130.220 C 277.985 129.003,277.931 128.602,277.467 129.067 M191.200 141.169 C 185.938 142.208,178.667 148.900,179.729 151.726 C 179.831 151.999,180.027 151.860,180.190 151.400 C 181.193 148.562,182.831 146.011,183.653 146.005 C 184.013 146.002,184.430 145.595,184.580 145.100 C 184.746 144.555,184.935 144.397,185.060 144.700 C 185.305 145.293,186.800 145.379,186.800 144.800 C 186.800 144.580,187.160 144.400,187.600 144.400 C 188.040 144.400,188.400 144.220,188.400 144.000 C 188.400 143.780,189.120 143.600,190.000 143.600 C 190.880 143.600,191.600 143.420,191.600 143.200 C 191.600 142.980,192.140 142.800,192.800 142.800 C 193.460 142.800,194.000 142.620,194.000 142.400 C 194.000 142.180,194.341 142.000,194.757 142.000 C 195.174 142.000,195.618 141.730,195.745 141.400 C 195.998 140.739,193.911 140.633,191.200 141.169 M196.600 141.600 C 196.736 141.820,197.180 142.000,197.586 142.000 C 199.490 142.000,203.725 145.184,206.127 148.421 C 206.773 149.291,206.770 149.255,206.100 148.091 C 204.775 145.786,202.288 143.513,199.810 142.341 C 197.329 141.167,196.167 140.899,196.600 141.600 M227.068 149.000 C 227.371 150.977,227.602 151.314,227.594 149.767 C 227.591 149.125,227.416 148.330,227.205 148.000 C 226.945 147.591,226.901 147.910,227.068 149.000 M207.728 156.200 C 207.726 160.357,207.744 160.454,208.054 157.968 C 208.234 156.520,208.235 154.540,208.056 153.568 C 207.801 152.182,207.730 152.751,207.728 156.200 M179.270 153.200 C 179.226 153.750,179.080 154.920,178.944 155.800 C 178.754 157.025,178.807 157.296,179.171 156.957 C 179.464 156.683,179.589 155.690,179.497 154.357 C 179.415 153.171,179.313 152.650,179.270 153.200 M227.720 155.600 C 227.720 156.810,227.795 157.305,227.887 156.700 C 227.978 156.095,227.978 155.105,227.887 154.500 C 227.795 153.895,227.720 154.390,227.720 155.600 M227.264 161.467 C 227.229 162.164,227.096 163.064,226.970 163.467 C 226.753 164.159,226.765 164.160,227.194 163.491 C 227.445 163.102,227.577 162.202,227.489 161.491 L 227.328 160.200 227.264 161.467 M179.068 163.200 C 179.200 164.410,179.374 165.475,179.454 165.567 C 179.764 165.921,179.525 162.557,179.186 161.800 C 178.952 161.278,178.912 161.763,179.068 163.200 M207.049 162.215 C 206.912 162.573,206.818 163.256,206.841 163.733 C 206.867 164.281,207.003 164.086,207.210 163.203 C 207.560 161.716,207.465 161.133,207.049 162.215 M159.600 167.310 C 159.600 168.103,159.769 168.857,159.976 168.985 C 160.201 169.124,160.259 168.609,160.120 167.709 C 159.810 165.700,159.600 165.539,159.600 167.310 M179.844 167.800 C 180.173 169.271,180.402 169.590,180.394 168.567 C 180.391 168.145,180.205 167.530,179.982 167.200 C 179.685 166.762,179.648 166.924,179.844 167.800 M160.400 171.310 C 160.400 171.883,160.587 172.468,160.816 172.610 C 161.089 172.779,161.138 172.477,160.960 171.734 C 160.592 170.201,160.400 170.056,160.400 171.310 M135.441 176.300 C 137.492 179.519,138.000 180.225,138.000 179.861 C 138.000 179.687,137.499 178.792,136.888 177.872 C 136.276 176.952,135.526 175.705,135.220 175.100 C 134.915 174.495,134.510 174.000,134.320 174.000 C 134.131 174.000,134.635 175.035,135.441 176.300 M139.160 182.200 C 139.834 183.505,140.388 184.228,140.385 183.800 C 140.383 183.580,140.014 182.950,139.564 182.400 C 139.021 181.736,138.885 181.669,139.160 182.200 M121.215 190.600 C 121.217 190.820,121.586 191.450,122.036 192.000 C 122.579 192.664,122.715 192.731,122.440 192.200 C 121.766 190.895,121.212 190.172,121.215 190.600 M122.815 193.400 C 122.817 193.620,123.186 194.250,123.636 194.800 C 124.179 195.464,124.315 195.531,124.040 195.000 C 123.366 193.695,122.812 192.972,122.815 193.400 M124.415 196.200 C 124.417 196.420,124.786 197.050,125.236 197.600 C 125.779 198.264,125.915 198.331,125.640 197.800 C 124.966 196.495,124.412 195.772,124.415 196.200 M156.500 214.697 C 157.985 214.774,160.415 214.774,161.900 214.697 C 163.385 214.620,162.170 214.557,159.200 214.557 C 156.230 214.557,155.015 214.620,156.500 214.697 M223.505 214.683 C 224.002 214.779,224.722 214.775,225.105 214.675 C 225.487 214.575,225.080 214.496,224.200 214.501 C 223.320 214.505,223.007 214.587,223.505 214.683 M156.661 234.300 C 156.558 234.465,158.753 234.553,161.537 234.496 C 170.879 234.304,171.856 234.157,164.324 234.078 C 160.212 234.035,156.763 234.135,156.661 234.300 M137.372 250.400 C 137.372 255.570,137.429 257.685,137.499 255.100 C 137.568 252.515,137.568 248.285,137.499 245.700 C 137.429 243.115,137.372 245.230,137.372 250.400 " stroke="none" fill="#a0fbd3" fill-rule="evenodd"></path><path id="path3" d="M398.800 258.400 C 398.800 258.620,398.260 258.800,397.600 258.800 C 396.940 258.800,396.400 258.980,396.400 259.200 C 396.400 259.420,395.540 259.600,394.488 259.600 C 393.035 259.600,392.438 259.792,392.000 260.400 C 391.661 260.870,390.965 261.200,390.312 261.200 C 389.700 261.200,389.200 261.380,389.200 261.600 C 389.200 261.820,388.840 262.000,388.400 262.000 C 387.960 262.000,387.600 262.180,387.600 262.400 C 387.600 262.620,387.060 262.800,386.400 262.800 C 385.740 262.800,385.200 262.980,385.200 263.200 C 385.200 263.420,384.480 263.600,383.600 263.600 C 382.720 263.600,382.000 263.780,382.000 264.000 C 382.000 264.220,381.460 264.400,380.800 264.400 C 380.140 264.400,379.600 264.580,379.600 264.800 C 379.600 265.020,379.240 265.200,378.800 265.200 C 378.360 265.200,378.000 265.380,378.000 265.600 C 378.000 265.820,377.640 266.000,377.200 266.000 C 376.760 266.000,376.400 266.180,376.400 266.400 C 376.400 266.620,376.040 266.800,375.600 266.800 C 375.160 266.800,374.800 266.980,374.800 267.200 C 374.800 267.420,373.900 267.600,372.800 267.600 C 371.700 267.600,370.800 267.780,370.800 268.000 C 370.800 268.220,370.440 268.400,370.000 268.400 C 369.560 268.400,369.200 268.580,369.200 268.800 C 369.200 269.020,368.840 269.200,368.400 269.200 C 367.960 269.200,367.600 269.380,367.600 269.600 C 367.600 269.820,367.060 270.000,366.400 270.000 C 365.740 270.000,365.200 270.180,365.200 270.400 C 365.200 270.620,364.840 270.800,364.400 270.800 C 363.960 270.800,363.600 270.980,363.600 271.200 C 363.600 271.420,362.700 271.600,361.600 271.600 C 360.500 271.600,359.600 271.780,359.600 272.000 C 359.600 272.220,359.240 272.400,358.800 272.400 C 358.360 272.400,358.000 272.580,358.000 272.800 C 358.000 273.020,357.500 273.200,356.888 273.200 C 356.235 273.200,355.539 273.530,355.200 274.000 C 354.861 274.470,354.165 274.800,353.512 274.800 C 352.900 274.800,352.400 274.980,352.400 275.200 C 352.400 275.420,351.540 275.600,350.488 275.600 C 349.035 275.600,348.438 275.792,348.000 276.400 C 347.661 276.870,346.965 277.200,346.312 277.200 C 345.700 277.200,345.200 277.380,345.200 277.600 C 345.200 277.820,344.840 278.000,344.400 278.000 C 343.960 278.000,343.600 278.180,343.600 278.400 C 343.600 278.620,343.240 278.800,342.800 278.800 C 342.360 278.800,342.000 278.980,342.000 279.200 C 342.000 279.420,341.100 279.600,340.000 279.600 C 338.900 279.600,338.000 279.780,338.000 280.000 C 338.000 280.220,337.500 280.400,336.888 280.400 C 336.235 280.400,335.539 280.730,335.200 281.200 C 334.861 281.670,334.165 282.000,333.512 282.000 C 332.900 282.000,332.400 282.180,332.400 282.400 C 332.400 282.620,332.040 282.800,331.600 282.800 C 331.160 282.800,330.800 282.980,330.800 283.200 C 330.800 283.420,330.080 283.600,329.200 283.600 C 328.320 283.600,327.600 283.780,327.600 284.000 C 327.600 284.220,327.060 284.400,326.400 284.400 C 325.740 284.400,325.200 284.580,325.200 284.800 C 325.200 285.020,324.840 285.200,324.400 285.200 C 323.960 285.200,323.600 285.380,323.600 285.600 C 323.600 285.820,323.060 286.000,322.400 286.000 C 321.740 286.000,321.200 286.180,321.200 286.400 C 321.200 286.620,320.840 286.800,320.400 286.800 C 319.960 286.800,319.600 286.980,319.600 287.200 C 319.600 287.420,318.700 287.600,317.600 287.600 C 316.500 287.600,315.600 287.780,315.600 288.000 C 315.600 288.220,315.240 288.400,314.800 288.400 C 314.360 288.400,314.000 288.580,314.000 288.800 C 314.000 289.020,313.640 289.200,313.200 289.200 C 312.760 289.200,312.400 289.380,312.400 289.600 C 312.400 289.820,312.040 290.000,311.600 290.000 C 311.160 290.000,310.800 290.180,310.800 290.400 C 310.800 290.620,310.260 290.800,309.600 290.800 C 308.940 290.800,308.400 290.980,308.400 291.200 C 308.400 291.420,307.680 291.600,306.800 291.600 C 305.920 291.600,305.200 291.780,305.200 292.000 C 305.200 292.220,304.840 292.400,304.400 292.400 C 303.960 292.400,303.600 292.580,303.600 292.800 C 303.600 293.020,303.060 293.200,302.400 293.200 C 301.740 293.200,301.200 293.380,301.200 293.600 C 301.200 293.820,300.840 294.000,300.400 294.000 C 299.960 294.000,299.600 294.180,299.600 294.400 C 299.600 294.620,299.240 294.800,298.800 294.800 C 298.360 294.800,298.000 294.980,298.000 295.200 C 298.000 295.420,297.100 295.600,296.000 295.600 C 294.900 295.600,294.000 295.780,294.000 296.000 C 294.000 296.220,293.500 296.400,292.888 296.400 C 292.235 296.400,291.539 296.730,291.200 297.200 C 290.861 297.670,290.165 298.000,289.512 298.000 C 288.900 298.000,288.400 298.180,288.400 298.400 C 288.400 298.620,288.040 298.800,287.600 298.800 C 287.160 298.800,286.800 298.980,286.800 299.200 C 286.800 299.420,286.080 299.600,285.200 299.600 C 284.320 299.600,283.600 299.780,283.600 300.000 C 283.600 300.220,283.060 300.400,282.400 300.400 C 281.740 300.400,281.200 300.580,281.200 300.800 C 281.200 301.020,280.840 301.200,280.400 301.200 C 279.960 301.200,279.600 301.380,279.600 301.600 C 279.600 301.820,279.060 302.000,278.400 302.000 C 277.740 302.000,277.200 302.180,277.200 302.400 C 277.200 302.620,276.840 302.800,276.400 302.800 C 275.960 302.800,275.600 302.980,275.600 303.200 C 275.600 303.420,274.700 303.600,273.600 303.600 C 272.500 303.600,271.600 303.780,271.600 304.000 C 271.600 304.220,271.240 304.400,270.800 304.400 C 270.360 304.400,270.000 304.580,270.000 304.800 C 270.000 305.020,269.640 305.200,269.200 305.200 C 268.760 305.200,268.400 305.380,268.400 305.600 C 268.400 305.820,268.040 306.000,267.600 306.000 C 267.160 306.000,266.800 306.180,266.800 306.400 C 266.800 306.620,266.260 306.800,265.600 306.800 C 264.940 306.800,264.400 306.980,264.400 307.200 C 264.400 307.420,263.680 307.600,262.800 307.600 C 261.920 307.600,261.200 307.780,261.200 308.000 C 261.200 308.220,260.840 308.400,260.400 308.400 C 259.960 308.400,259.600 308.580,259.600 308.800 C 259.600 309.020,259.060 309.200,258.400 309.200 C 257.740 309.200,257.200 309.380,257.200 309.600 C 257.200 309.820,256.840 310.000,256.400 310.000 C 255.960 310.000,255.600 310.180,255.600 310.400 C 255.600 310.620,255.240 310.800,254.800 310.800 C 254.360 310.800,254.000 310.980,254.000 311.200 C 254.000 311.420,253.100 311.600,252.000 311.600 C 250.900 311.600,250.000 311.780,250.000 312.000 C 250.000 312.220,249.500 312.400,248.888 312.400 C 248.235 312.400,247.539 312.730,247.200 313.200 C 246.861 313.670,246.165 314.000,245.512 314.000 C 244.900 314.000,244.400 314.180,244.400 314.400 C 244.400 314.620,244.040 314.800,243.600 314.800 C 243.160 314.800,242.800 314.980,242.800 315.200 C 242.800 315.420,242.080 315.600,241.200 315.600 C 240.320 315.600,239.600 315.780,239.600 316.000 C 239.600 316.220,239.060 316.400,238.400 316.400 C 237.740 316.400,237.200 316.580,237.200 316.800 C 237.200 317.020,236.840 317.200,236.400 317.200 C 235.960 317.200,235.600 317.380,235.600 317.600 C 235.600 317.820,235.060 318.000,234.400 318.000 C 233.740 318.000,233.200 318.180,233.200 318.400 C 233.200 318.620,232.840 318.800,232.400 318.800 C 231.960 318.800,231.600 318.980,231.600 319.200 C 231.600 319.420,230.700 319.600,229.600 319.600 C 228.500 319.600,227.600 319.780,227.600 320.000 C 227.600 320.220,227.240 320.400,226.800 320.400 C 226.360 320.400,226.000 320.580,226.000 320.800 C 226.000 321.020,225.640 321.200,225.200 321.200 C 224.760 321.200,224.400 321.380,224.400 321.600 C 224.400 321.820,224.040 322.000,223.600 322.000 C 223.160 322.000,222.800 322.180,222.800 322.400 C 222.800 322.620,222.260 322.800,221.600 322.800 C 220.940 322.800,220.400 322.980,220.400 323.200 C 220.400 323.420,219.680 323.600,218.800 323.600 C 217.920 323.600,217.200 323.780,217.200 324.000 C 217.200 324.220,216.840 324.400,216.400 324.400 C 215.960 324.400,215.600 324.580,215.600 324.800 C 215.600 325.020,215.060 325.200,214.400 325.200 C 213.740 325.200,213.200 325.380,213.200 325.600 C 213.200 325.820,212.840 326.000,212.400 326.000 C 211.960 326.000,211.600 326.180,211.600 326.400 C 211.600 326.620,211.240 326.800,210.800 326.800 C 210.360 326.800,210.000 326.620,210.000 326.400 C 210.000 324.991,206.301 326.048,204.400 328.000 C 202.023 330.440,202.072 330.438,201.922 328.100 C 201.746 325.366,199.957 325.147,197.625 327.574 C 196.102 329.159,193.200 329.963,193.200 328.800 C 193.200 328.012,190.223 328.351,189.693 329.200 C 189.317 329.802,188.760 330.000,187.439 330.000 C 185.582 330.000,185.200 330.381,185.200 332.233 C 185.200 333.041,185.397 333.200,186.400 333.200 C 187.224 333.200,187.600 333.397,187.600 333.829 C 187.600 334.871,186.541 335.600,185.029 335.600 C 184.243 335.600,183.600 335.780,183.600 336.000 C 183.600 336.220,183.240 336.400,182.800 336.400 C 182.360 336.400,182.000 336.580,182.000 336.800 C 182.000 337.020,181.640 337.200,181.200 337.200 C 180.760 337.200,180.400 337.380,180.400 337.600 C 180.400 337.820,180.040 338.000,179.600 338.000 C 179.160 338.000,178.800 338.180,178.800 338.400 C 178.800 338.620,178.260 338.800,177.600 338.800 C 176.940 338.800,176.400 338.980,176.400 339.200 C 176.400 339.420,175.680 339.600,174.800 339.600 C 173.920 339.600,173.200 339.780,173.200 340.000 C 173.200 340.220,172.840 340.400,172.400 340.400 C 171.960 340.400,171.600 340.580,171.600 340.800 C 171.600 341.020,171.060 341.200,170.400 341.200 C 169.740 341.200,169.200 341.380,169.200 341.600 C 169.200 341.820,168.840 342.000,168.400 342.000 C 167.960 342.000,167.600 342.180,167.600 342.400 C 167.600 342.620,167.240 342.800,166.800 342.800 C 166.360 342.800,166.000 342.980,166.000 343.200 C 166.000 343.420,165.100 343.600,164.000 343.600 C 162.900 343.600,162.000 343.780,162.000 344.000 C 162.000 344.220,161.640 344.400,161.200 344.400 C 160.760 344.400,160.400 344.580,160.400 344.800 C 160.400 345.020,160.040 345.200,159.600 345.200 C 159.160 345.200,158.800 345.380,158.800 345.600 C 158.800 345.820,158.260 346.000,157.600 346.000 C 156.940 346.000,156.400 346.180,156.400 346.400 C 156.400 346.620,156.040 346.800,155.600 346.800 C 155.160 346.800,154.800 346.980,154.800 347.200 C 154.800 347.420,154.080 347.600,153.200 347.600 C 152.320 347.600,151.600 347.780,151.600 348.000 C 151.600 348.220,151.060 348.400,150.400 348.400 C 149.740 348.400,149.200 348.580,149.200 348.800 C 149.200 349.020,148.840 349.200,148.400 349.200 C 147.960 349.200,147.600 349.380,147.600 349.600 C 147.600 349.820,147.240 350.000,146.800 350.000 C 146.360 350.000,146.000 350.180,146.000 350.400 C 146.000 350.620,145.460 350.800,144.800 350.800 C 144.140 350.800,143.600 350.980,143.600 351.200 C 143.600 351.420,142.740 351.600,141.688 351.600 C 140.235 351.600,139.638 351.792,139.200 352.400 C 138.861 352.870,138.165 353.200,137.512 353.200 C 136.900 353.200,136.400 353.380,136.400 353.600 C 136.400 353.820,136.040 354.000,135.600 354.000 C 135.160 354.000,134.800 354.180,134.800 354.400 C 134.800 354.620,134.260 354.800,133.600 354.800 C 132.940 354.800,132.400 354.980,132.400 355.200 C 132.400 355.420,131.680 355.600,130.800 355.600 C 129.920 355.600,129.200 355.780,129.200 356.000 C 129.200 356.220,128.840 356.400,128.400 356.400 C 127.960 356.400,127.600 356.580,127.600 356.800 C 127.600 357.020,127.060 357.200,126.400 357.200 C 125.740 357.200,125.200 357.380,125.200 357.600 C 125.200 357.820,124.840 358.000,124.400 358.000 C 123.960 358.000,123.600 358.180,123.600 358.400 C 123.600 358.620,123.240 358.800,122.800 358.800 C 122.360 358.800,122.000 358.980,122.000 359.200 C 122.000 359.420,121.100 359.600,120.000 359.600 C 118.900 359.600,118.000 359.780,118.000 360.000 C 118.000 360.220,117.640 360.400,117.200 360.400 C 116.760 360.400,116.400 360.580,116.400 360.800 C 116.400 361.020,116.040 361.200,115.600 361.200 C 115.160 361.200,114.800 361.380,114.800 361.600 C 114.800 361.820,114.260 362.000,113.600 362.000 C 112.940 362.000,112.400 362.180,112.400 362.400 C 112.400 362.620,112.040 362.800,111.600 362.800 C 111.160 362.800,110.800 362.980,110.800 363.200 C 110.800 363.420,110.080 363.600,109.200 363.600 C 108.320 363.600,107.600 363.780,107.600 364.000 C 107.600 364.220,107.060 364.400,106.400 364.400 C 105.740 364.400,105.200 364.580,105.200 364.800 C 105.200 365.020,104.840 365.200,104.400 365.200 C 103.960 365.200,103.600 365.380,103.600 365.600 C 103.600 365.820,103.240 366.000,102.800 366.000 C 102.360 366.000,102.000 366.180,102.000 366.400 C 102.000 366.620,101.460 366.800,100.800 366.800 C 100.140 366.800,99.600 366.980,99.600 367.200 C 99.600 367.420,98.740 367.600,97.688 367.600 C 96.235 367.600,95.638 367.792,95.200 368.400 C 94.861 368.870,94.165 369.200,93.512 369.200 C 92.900 369.200,92.400 369.380,92.400 369.600 C 92.400 369.820,92.040 370.000,91.600 370.000 C 91.160 370.000,90.800 370.180,90.800 370.400 C 90.800 370.620,90.260 370.800,89.600 370.800 C 88.940 370.800,88.400 370.980,88.400 371.200 C 88.400 371.420,87.680 371.600,86.800 371.600 C 85.920 371.600,85.200 371.780,85.200 372.000 C 85.200 372.220,84.840 372.400,84.400 372.400 C 83.960 372.400,83.600 372.580,83.600 372.800 C 83.600 373.020,83.060 373.200,82.400 373.200 C 81.740 373.200,81.200 373.380,81.200 373.600 C 81.200 373.820,80.840 374.000,80.400 374.000 C 79.960 374.000,79.600 374.180,79.600 374.400 C 79.600 374.620,79.240 374.800,78.800 374.800 C 78.360 374.800,78.000 374.980,78.000 375.200 C 78.000 375.420,77.100 375.600,76.000 375.600 C 74.900 375.600,74.000 375.780,74.000 376.000 C 74.000 376.220,73.640 376.400,73.200 376.400 C 72.760 376.400,72.400 376.580,72.400 376.800 C 72.400 377.020,72.040 377.200,71.600 377.200 C 71.160 377.200,70.800 377.380,70.800 377.600 C 70.800 377.820,70.260 378.000,69.600 378.000 C 68.940 378.000,68.400 378.180,68.400 378.400 C 68.400 378.620,68.040 378.800,67.600 378.800 C 67.160 378.800,66.800 378.980,66.800 379.200 C 66.800 379.420,66.080 379.600,65.200 379.600 C 64.320 379.600,63.600 379.780,63.600 380.000 C 63.600 380.220,63.060 380.400,62.400 380.400 C 61.740 380.400,61.200 380.580,61.200 380.800 C 61.200 381.020,60.840 381.200,60.400 381.200 C 59.960 381.200,59.600 381.380,59.600 381.600 C 59.600 381.820,59.240 382.000,58.800 382.000 C 58.360 382.000,58.000 382.180,58.000 382.400 C 58.000 382.620,57.460 382.800,56.800 382.800 C 56.140 382.800,55.600 382.980,55.600 383.200 C 55.600 383.420,54.740 383.600,53.688 383.600 C 52.235 383.600,51.638 383.792,51.200 384.400 C 50.861 384.870,50.165 385.200,49.512 385.200 C 48.900 385.200,48.400 385.380,48.400 385.600 C 48.400 385.820,48.040 386.000,47.600 386.000 C 47.160 386.000,46.800 386.180,46.800 386.400 C 46.800 386.620,46.260 386.800,45.600 386.800 C 44.940 386.800,44.400 386.980,44.400 387.200 C 44.400 387.420,43.680 387.600,42.800 387.600 C 41.920 387.600,41.200 387.780,41.200 388.000 C 41.200 388.220,40.840 388.400,40.400 388.400 C 39.960 388.400,39.600 388.580,39.600 388.800 C 39.600 389.020,39.060 389.200,38.400 389.200 C 37.740 389.200,37.200 389.380,37.200 389.600 C 37.200 389.820,36.840 390.000,36.400 390.000 C 35.960 390.000,35.600 390.180,35.600 390.400 C 35.600 390.620,35.240 390.800,34.800 390.800 C 34.360 390.800,34.000 390.980,34.000 391.200 C 34.000 391.420,33.100 391.600,32.000 391.600 C 30.900 391.600,30.000 391.780,30.000 392.000 C 30.000 392.220,29.640 392.400,29.200 392.400 C 28.760 392.400,28.400 392.580,28.400 392.800 C 28.400 393.020,28.040 393.200,27.600 393.200 C 27.160 393.200,26.800 393.380,26.800 393.600 C 26.800 393.820,26.260 394.000,25.600 394.000 C 24.940 394.000,24.400 394.180,24.400 394.400 C 24.400 394.620,24.040 394.800,23.600 394.800 C 23.160 394.800,22.800 394.980,22.800 395.200 C 22.800 395.420,22.080 395.600,21.200 395.600 C 20.320 395.600,19.600 395.780,19.600 396.000 C 19.600 396.220,19.060 396.400,18.400 396.400 C 17.740 396.400,17.200 396.580,17.200 396.800 C 17.200 397.020,16.840 397.200,16.400 397.200 C 15.960 397.200,15.600 397.380,15.600 397.600 C 15.600 397.820,15.240 398.000,14.800 398.000 C 14.360 398.000,14.000 398.180,14.000 398.400 C 14.000 398.620,13.460 398.800,12.800 398.800 C 12.000 398.800,11.600 399.000,11.600 399.400 C 11.600 399.933,33.444 400.000,205.800 400.000 L 400.000 400.000 400.000 329.000 C 400.000 266.156,399.931 258.000,399.400 258.000 C 399.070 258.000,398.800 258.180,398.800 258.400 M200.800 327.786 C 200.800 328.108,200.259 329.225,199.599 330.267 C 197.187 334.069,195.226 340.806,195.310 345.000 C 195.381 348.549,195.017 349.687,193.866 349.523 C 191.023 349.118,194.430 333.450,198.394 328.700 C 199.674 327.166,200.800 326.738,200.800 327.786 M209.024 327.768 C 211.141 329.316,208.722 336.222,205.449 337.974 C 204.058 338.718,204.122 339.545,205.608 340.063 C 211.234 342.024,205.670 350.497,197.126 352.980 C 193.920 353.913,191.684 353.388,194.616 352.391 C 197.489 351.415,199.951 350.106,201.922 348.507 C 202.869 347.739,203.764 347.230,203.910 347.377 C 204.057 347.524,203.917 347.804,203.600 348.000 C 203.283 348.196,203.144 348.478,203.293 348.626 C 203.733 349.066,204.898 347.632,204.642 346.964 C 204.512 346.626,204.674 345.830,205.003 345.195 C 206.429 342.437,205.588 340.800,202.744 340.800 C 200.388 340.800,199.898 340.147,201.439 339.061 C 205.524 336.182,208.980 330.100,207.167 328.980 C 206.330 328.462,202.405 332.983,199.606 337.689 C 198.857 338.948,198.177 339.911,198.095 339.829 C 197.488 339.222,203.626 330.259,206.039 328.229 C 207.439 327.051,207.938 326.974,209.024 327.768 M192.600 330.000 C 192.736 330.220,193.242 330.415,193.724 330.433 C 194.477 330.461,194.431 330.540,193.391 330.997 C 192.687 331.306,191.897 332.127,191.498 332.964 C 191.121 333.754,190.630 334.400,190.406 334.400 C 190.183 334.400,190.000 334.693,190.000 335.051 C 190.000 335.410,189.264 337.425,188.365 339.530 C 184.520 348.530,184.410 349.176,186.724 349.242 L 188.200 349.283 186.400 349.795 C 183.149 350.719,180.000 351.333,179.758 351.091 C 179.273 350.606,180.050 350.062,181.602 349.800 C 183.013 349.561,183.200 349.401,183.200 348.431 C 183.200 347.304,185.011 342.614,187.944 336.147 C 189.908 331.815,189.894 331.920,188.500 332.012 C 186.773 332.126,186.334 332.031,186.600 331.600 C 186.736 331.380,187.242 331.200,187.724 331.199 C 188.206 331.199,189.230 330.861,190.000 330.448 C 191.654 329.562,192.264 329.457,192.600 330.000 " stroke="none" fill="#27f3cb" fill-rule="evenodd"></path><path id="path4" d="M191.187 13.337 C 191.070 13.459,188.460 13.750,185.387 13.984 C 177.117 14.612,172.578 15.375,166.200 17.206 C 165.320 17.459,164.103 17.762,163.495 17.879 C 162.887 17.996,162.292 18.251,162.171 18.446 C 162.051 18.641,161.524 18.800,161.000 18.800 C 160.476 18.800,159.936 18.980,159.800 19.200 C 159.664 19.420,159.201 19.600,158.771 19.600 C 158.341 19.600,157.677 19.759,157.295 19.953 C 156.632 20.290,155.130 20.936,153.400 21.626 C 151.955 22.204,143.428 26.362,142.136 27.120 C 141.441 27.527,140.417 28.159,139.862 28.523 C 139.306 28.887,138.165 29.566,137.326 30.032 C 135.911 30.818,134.942 31.505,129.340 35.695 C 116.561 45.252,103.511 62.249,97.626 77.000 C 97.451 77.440,97.121 78.250,96.894 78.800 C 96.667 79.350,96.264 80.430,96.000 81.200 C 95.736 81.970,95.366 82.960,95.178 83.400 C 94.873 84.118,93.809 87.812,92.817 91.600 C 88.020 109.924,89.178 129.624,96.074 147.000 C 99.843 156.496,102.925 161.886,117.464 184.400 C 126.698 198.700,131.911 209.314,134.225 218.525 C 134.599 220.012,134.996 221.138,135.107 221.026 C 135.439 220.695,133.272 213.129,132.381 211.505 C 132.171 211.123,132.000 210.634,132.000 210.417 C 132.000 209.634,127.008 199.166,124.934 195.600 C 124.358 194.610,123.562 193.227,123.165 192.527 C 122.198 190.819,121.387 189.556,108.534 169.704 C 107.360 167.891,106.400 166.334,106.400 166.245 C 106.400 166.155,105.666 164.873,104.768 163.395 C 102.783 160.128,98.825 152.466,97.847 150.000 C 97.455 149.010,96.892 147.660,96.595 147.000 C 84.362 119.759,90.875 80.416,112.023 53.804 C 116.317 48.399,118.859 45.674,123.800 41.174 C 131.023 34.597,148.510 23.200,151.379 23.200 C 151.505 23.200,152.372 22.860,153.304 22.444 C 156.457 21.039,161.474 19.288,166.000 18.014 C 166.990 17.735,168.250 17.370,168.800 17.203 C 171.203 16.473,176.091 15.606,182.567 14.762 C 187.510 14.118,203.871 14.096,207.400 14.729 C 208.940 15.005,211.280 15.420,212.600 15.651 C 229.255 18.566,247.827 26.766,259.400 36.316 C 289.217 60.919,303.467 96.900,296.823 130.800 C 296.117 134.400,295.954 135.856,296.360 134.946 C 298.466 130.218,299.328 111.134,297.867 101.600 C 292.850 68.879,273.842 42.058,244.049 25.664 C 241.985 24.529,240.235 23.600,240.159 23.600 C 240.082 23.600,238.841 23.060,237.400 22.400 C 235.959 21.740,234.602 21.200,234.385 21.200 C 234.167 21.200,233.677 21.025,233.295 20.811 C 230.775 19.402,218.156 15.888,211.600 14.770 C 205.675 13.759,191.721 12.780,191.187 13.337 M183.000 33.259 C 180.910 33.639,177.988 34.198,174.600 34.866 C 173.500 35.083,172.150 35.406,171.600 35.584 C 171.050 35.762,169.790 36.136,168.800 36.416 C 144.926 43.171,122.871 63.517,114.403 86.600 C 113.918 87.920,113.380 89.360,113.207 89.800 C 113.033 90.240,112.670 91.410,112.399 92.400 C 112.129 93.390,111.770 94.650,111.603 95.200 C 108.844 104.276,108.261 118.130,110.232 127.800 C 111.118 132.151,112.025 135.414,113.177 138.400 C 113.643 139.610,114.230 141.140,114.481 141.800 C 115.327 144.023,119.356 151.774,121.342 155.000 C 122.426 156.760,123.797 159.010,124.388 160.000 C 124.979 160.990,126.994 164.140,128.866 167.000 C 138.350 181.492,140.067 184.325,144.131 192.200 C 145.816 195.465,147.490 199.218,148.770 202.600 C 149.269 203.920,149.833 205.360,150.024 205.800 C 150.214 206.240,150.679 207.582,151.057 208.782 C 151.436 209.982,151.813 210.760,151.896 210.512 C 152.783 207.850,143.319 188.661,133.641 173.503 C 130.869 169.160,126.739 162.680,124.464 159.103 C 109.271 135.215,106.165 116.669,113.194 91.800 C 116.478 80.183,125.015 66.384,134.648 57.123 C 138.749 53.179,148.026 46.000,149.020 46.000 C 149.161 46.000,149.754 45.664,150.338 45.253 C 152.055 44.045,157.180 41.441,160.200 40.243 C 161.740 39.633,163.540 38.904,164.200 38.625 C 165.465 38.090,169.506 36.808,172.200 36.088 C 173.656 35.698,174.920 35.434,180.400 34.375 C 188.591 32.792,201.246 32.823,209.600 34.446 C 215.447 35.582,222.394 37.486,224.095 38.419 C 224.477 38.629,224.966 38.800,225.182 38.800 C 226.954 38.800,237.230 44.100,243.125 48.055 C 271.892 67.355,285.992 104.673,276.126 135.400 C 273.170 144.606,269.315 151.689,257.401 169.800 C 250.724 179.951,241.954 195.287,242.509 195.842 C 242.619 195.953,243.399 194.638,244.242 192.921 C 245.084 191.205,246.635 188.301,247.687 186.468 C 248.739 184.636,249.600 183.067,249.600 182.981 C 249.600 182.753,253.648 176.438,264.399 159.890 C 265.940 157.519,267.200 155.508,267.200 155.421 C 267.200 155.334,268.073 153.752,269.140 151.905 C 280.746 131.807,282.734 113.979,275.951 90.800 C 275.468 89.150,274.922 87.629,274.737 87.420 C 274.551 87.211,274.400 86.774,274.400 86.449 C 274.400 85.668,269.945 76.553,267.992 73.338 C 259.297 59.027,244.549 46.172,229.600 39.876 C 223.798 37.433,219.256 35.931,214.400 34.850 C 213.410 34.630,212.150 34.343,211.600 34.212 C 205.827 32.843,188.463 32.264,183.000 33.259 M209.400 43.563 C 199.287 45.372,198.585 59.578,208.461 62.584 C 226.048 67.939,240.995 80.071,248.295 94.916 C 252.879 104.240,259.956 106.532,265.680 100.548 C 269.522 96.532,269.433 93.656,265.212 85.306 C 257.490 70.033,245.155 58.022,229.000 50.044 C 217.371 44.302,213.122 42.897,209.400 43.563 M215.729 44.965 C 223.929 47.721,238.307 54.949,240.000 57.165 C 240.110 57.309,241.460 58.317,243.000 59.404 C 252.375 66.021,263.962 81.071,267.502 91.228 C 269.878 98.046,263.034 104.860,255.943 102.736 C 253.386 101.970,251.390 99.908,249.491 96.073 C 242.274 81.499,230.164 70.404,214.800 64.291 C 214.250 64.072,213.440 63.749,213.000 63.573 C 212.560 63.397,211.030 62.860,209.600 62.379 C 204.587 60.695,202.558 58.507,202.129 54.319 C 201.349 46.709,207.774 42.291,215.729 44.965 M188.600 121.792 C 156.280 126.347,149.321 167.449,175.253 200.624 C 177.204 203.120,178.800 205.256,178.800 205.371 C 178.800 205.677,171.959 210.232,167.821 212.681 L 164.241 214.800 159.294 214.800 C 156.469 214.800,153.996 214.612,153.527 214.361 C 152.880 214.015,152.745 214.036,152.887 214.461 C 153.023 214.872,154.406 215.026,158.693 215.111 L 164.320 215.221 166.860 213.766 C 171.096 211.338,179.200 205.913,179.200 205.506 C 179.200 205.099,177.772 202.956,176.907 202.065 C 176.622 201.771,175.897 200.871,175.296 200.065 C 174.696 199.259,174.102 198.510,173.976 198.400 C 171.304 196.063,164.666 182.934,162.448 175.600 C 161.703 173.139,161.418 171.908,160.421 166.869 C 156.767 148.390,165.850 130.057,181.600 124.123 C 186.290 122.355,187.276 122.200,193.800 122.200 C 210.724 122.200,222.879 132.327,226.778 149.677 C 227.959 154.933,226.971 163.636,223.992 174.200 C 223.180 177.081,223.122 177.436,223.577 176.727 C 224.274 175.642,226.678 165.721,227.216 161.706 C 230.459 137.541,212.027 118.491,188.600 121.792 M295.423 136.870 C 295.285 137.381,294.978 138.520,294.742 139.400 C 294.505 140.280,293.972 141.879,293.556 142.953 C 293.140 144.028,292.800 145.065,292.800 145.258 C 292.800 147.743,283.249 165.060,275.183 177.200 C 271.487 182.762,270.255 184.703,265.908 191.800 C 263.423 195.857,257.416 207.950,257.730 208.263 C 257.860 208.393,258.281 207.712,258.665 206.750 C 261.219 200.354,265.659 192.627,275.415 177.600 C 282.819 166.196,285.242 162.143,288.632 155.494 C 292.173 148.548,296.576 136.842,295.901 136.167 C 295.775 136.042,295.560 136.358,295.423 136.870 M190.749 140.750 C 186.762 141.596,182.091 145.090,180.323 148.548 C 175.068 158.826,180.897 179.904,192.222 191.575 L 193.167 192.549 194.084 191.414 C 203.644 179.564,210.586 160.514,208.356 152.246 C 206.159 144.102,198.505 139.104,190.749 140.750 M199.699 142.299 C 212.060 148.105,210.436 167.741,195.895 188.300 C 192.991 192.406,193.231 192.440,189.458 187.375 C 181.192 176.276,177.515 164.157,179.222 153.636 C 180.812 143.835,190.983 138.204,199.699 142.299 M222.573 178.243 C 222.438 178.659,222.140 179.450,221.910 180.000 C 221.681 180.550,221.359 181.360,221.195 181.800 C 219.323 186.829,213.492 196.671,208.338 203.502 C 207.088 205.159,207.074 205.221,207.827 205.797 C 210.139 207.567,215.429 210.934,220.338 213.759 L 222.876 215.219 229.305 215.110 C 234.606 215.019,235.766 214.895,235.917 214.400 C 236.065 213.916,235.998 213.896,235.570 214.300 C 235.194 214.655,233.281 214.800,228.991 214.800 L 222.941 214.800 218.171 211.973 C 213.310 209.092,208.112 205.705,207.815 205.224 C 207.725 205.078,208.549 203.798,209.647 202.379 C 215.378 194.974,224.140 178.807,223.025 177.692 C 222.912 177.578,222.708 177.826,222.573 178.243 M240.783 199.479 C 238.782 204.251,236.754 210.062,236.918 210.554 C 236.999 210.796,237.400 209.915,237.811 208.597 C 238.221 207.279,239.421 204.054,240.477 201.432 C 241.532 198.809,242.328 196.595,242.244 196.511 C 242.160 196.427,241.503 197.763,240.783 199.479 M256.615 210.615 C 256.230 211.624,256.004 212.537,256.113 212.646 C 256.221 212.755,256.600 211.993,256.954 210.954 C 257.790 208.499,257.525 208.234,256.615 210.615 M152.034 211.800 C 152.022 212.240,152.187 212.870,152.400 213.200 C 152.914 213.995,152.914 212.996,152.400 211.800 L 152.056 211.000 152.034 211.800 M236.229 212.229 C 236.081 212.815,236.051 213.384,236.161 213.494 C 236.271 213.604,236.481 213.215,236.629 212.629 C 236.776 212.042,236.806 211.473,236.696 211.363 C 236.586 211.253,236.376 211.642,236.229 212.229 M254.673 216.153 C 254.523 216.545,254.411 217.166,254.425 217.533 C 254.442 217.975,254.581 217.874,254.837 217.234 C 255.049 216.703,255.161 216.082,255.085 215.854 C 255.009 215.627,254.824 215.761,254.673 216.153 M253.849 219.015 C 253.712 219.373,253.616 220.056,253.636 220.533 C 253.662 221.147,253.785 221.008,254.059 220.056 C 254.457 218.672,254.294 217.858,253.849 219.015 M135.268 222.200 C 135.274 222.640,135.424 223.450,135.600 224.000 L 135.920 225.000 135.932 224.000 C 135.938 223.450,135.789 222.640,135.600 222.200 L 135.256 221.400 135.268 222.200 M252.978 222.978 C 252.827 223.781,252.794 224.527,252.904 224.637 C 253.014 224.747,253.227 224.181,253.378 223.378 C 253.528 222.575,253.562 221.828,253.452 221.718 C 253.342 221.608,253.128 222.175,252.978 222.978 M136.063 226.000 C 136.054 226.550,136.195 227.720,136.377 228.600 L 136.708 230.200 136.714 228.600 C 136.717 227.720,136.576 226.550,136.400 226.000 L 136.080 225.000 136.063 226.000 M252.198 228.085 C 252.046 229.704,251.994 231.473,252.081 232.015 C 252.168 232.557,252.386 231.325,252.564 229.278 C 252.743 227.230,252.795 225.462,252.681 225.348 C 252.567 225.234,252.350 226.465,252.198 228.085 M137.090 235.600 C 137.211 238.570,137.374 241.075,137.454 241.167 C 137.752 241.507,137.541 233.341,137.213 231.800 C 136.997 230.789,136.952 232.187,137.090 235.600 M156.280 233.898 C 156.186 234.064,156.240 240.680,156.399 248.600 L 156.688 263.000 156.687 248.600 L 156.686 234.200 194.643 234.200 L 232.600 234.200 232.862 235.600 L 233.125 237.000 233.062 235.400 L 233.000 233.800 194.725 233.698 C 173.674 233.642,156.373 233.732,156.280 233.898 M251.402 238.874 C 251.248 241.143,251.193 243.540,251.278 244.200 C 251.364 244.860,251.583 243.097,251.766 240.282 C 251.949 237.468,252.004 235.071,251.889 234.956 C 251.775 234.841,251.555 236.604,251.402 238.874 M232.432 239.496 L 232.400 240.393 212.300 240.500 L 192.200 240.608 212.313 240.704 C 233.494 240.805,233.353 240.816,232.669 239.113 C 232.556 238.831,232.449 239.003,232.432 239.496 M190.167 241.314 C 188.715 242.160,187.408 243.358,186.446 244.723 C 184.997 246.778,185.658 246.591,187.215 244.506 C 188.002 243.451,189.377 242.255,190.400 241.736 C 191.390 241.234,191.930 240.824,191.600 240.825 C 191.270 240.827,190.625 241.047,190.167 241.314 M185.043 247.433 C 184.722 248.268,184.782 251.613,185.133 252.500 C 185.286 252.885,185.411 251.760,185.411 250.000 C 185.411 246.538,185.404 246.492,185.043 247.433 M185.621 253.738 C 185.534 255.145,189.980 259.181,191.600 259.166 C 191.930 259.163,191.434 258.788,190.497 258.334 C 188.871 257.546,187.814 256.546,186.321 254.383 C 185.948 253.843,185.633 253.552,185.621 253.738 M212.000 259.592 L 231.800 259.800 232.057 261.400 L 232.314 263.000 232.257 261.200 L 232.200 259.400 212.200 259.392 L 192.200 259.385 212.000 259.592 M250.671 263.746 C 250.499 265.476,250.443 266.976,250.546 267.080 C 250.829 267.362,251.291 263.151,251.127 261.788 C 251.049 261.135,250.844 262.016,250.671 263.746 M137.647 263.233 C 137.673 264.425,137.842 265.940,138.022 266.600 C 138.222 267.336,138.263 266.562,138.126 264.600 C 137.867 260.894,137.578 260.067,137.647 263.233 M156.834 264.200 C 156.822 264.640,156.987 265.270,157.200 265.600 C 157.714 266.395,157.714 265.396,157.200 264.200 L 156.856 263.400 156.834 264.200 M231.450 264.850 C 231.309 265.553,231.269 266.202,231.359 266.292 C 231.450 266.383,231.648 265.891,231.800 265.200 C 231.952 264.509,231.993 263.859,231.891 263.758 C 231.789 263.656,231.591 264.147,231.450 264.850 M157.600 266.897 C 157.600 268.363,158.509 268.400,194.400 268.400 C 228.985 268.400,231.200 268.325,231.200 267.157 C 231.200 266.929,230.917 267.026,230.571 267.371 C 230.009 267.933,226.178 268.000,194.394 268.000 L 158.845 268.000 158.223 267.111 C 157.723 266.398,157.600 266.355,157.600 266.897 M138.456 268.600 C 138.456 269.040,138.611 269.760,138.800 270.200 L 139.144 271.000 139.144 270.200 C 139.144 269.760,138.989 269.040,138.800 268.600 L 138.456 267.800 138.456 268.600 M249.829 269.029 C 249.681 269.615,249.638 270.172,249.732 270.266 C 249.827 270.360,250.024 269.958,250.171 269.371 C 250.319 268.785,250.362 268.228,250.268 268.134 C 250.173 268.040,249.976 268.442,249.829 269.029 M139.212 271.600 C 139.212 271.930,139.387 272.470,139.600 272.800 C 139.945 273.333,139.988 273.333,139.988 272.800 C 139.988 272.470,139.813 271.930,139.600 271.600 C 139.255 271.067,139.212 271.067,139.212 271.600 M140.800 275.790 C 140.800 276.346,142.871 279.995,144.530 282.363 C 148.179 287.568,170.029 308.933,173.946 311.126 C 176.501 312.556,175.902 311.888,172.900 309.959 C 165.595 305.266,141.600 279.682,141.600 276.585 C 141.600 276.289,141.420 275.936,141.200 275.800 C 140.980 275.664,140.800 275.659,140.800 275.790 M244.650 280.950 C 243.358 282.947,242.595 284.337,242.954 284.038 C 243.700 283.419,247.381 277.634,247.151 277.444 C 247.068 277.375,245.943 278.953,244.650 280.950 M230.597 296.479 C 224.219 302.902,219.900 307.357,221.000 306.379 C 223.370 304.271,242.669 284.800,242.388 284.800 C 242.282 284.800,236.976 290.055,230.597 296.479 M175.600 287.144 C 175.600 287.707,178.702 291.058,180.515 292.453 C 181.704 293.368,181.316 292.839,179.200 290.658 C 177.550 288.957,176.125 287.483,176.033 287.383 C 175.942 287.282,184.218 287.200,194.425 287.200 L 212.982 287.200 209.591 290.611 C 207.726 292.487,205.426 294.398,204.479 294.857 C 203.533 295.316,202.850 295.783,202.961 295.894 C 203.689 296.623,213.200 288.529,213.200 287.181 C 213.200 286.945,206.041 286.800,194.400 286.800 C 184.060 286.800,175.600 286.955,175.600 287.144 M184.400 295.167 C 185.363 295.952,186.000 296.208,186.000 295.810 C 186.000 295.706,185.415 295.335,184.700 294.986 L 183.400 294.352 184.400 295.167 M189.000 297.200 C 189.440 297.389,190.250 297.538,190.800 297.532 L 191.800 297.520 190.800 297.200 C 190.250 297.024,189.440 296.874,189.000 296.868 L 188.200 296.856 189.000 297.200 M198.200 297.200 L 197.000 297.505 198.200 297.547 C 198.860 297.569,199.670 297.413,200.000 297.200 C 200.743 296.720,200.087 296.720,198.200 297.200 M192.900 297.876 C 193.285 297.976,193.915 297.976,194.300 297.876 C 194.685 297.775,194.370 297.693,193.600 297.693 C 192.830 297.693,192.515 297.775,192.900 297.876 M216.090 309.766 C 213.294 311.682,212.504 312.367,213.973 311.601 C 215.753 310.673,219.500 307.837,218.700 308.023 C 218.645 308.036,217.471 308.820,216.090 309.766 M184.600 315.600 C 185.040 315.789,185.670 315.944,186.000 315.944 C 186.378 315.944,186.304 315.817,185.800 315.600 C 185.360 315.411,184.730 315.256,184.400 315.256 C 184.022 315.256,184.096 315.383,184.600 315.600 M202.600 315.600 L 201.800 315.944 202.600 315.944 C 203.040 315.944,203.760 315.789,204.200 315.600 L 205.000 315.256 204.200 315.256 C 203.760 315.256,203.040 315.411,202.600 315.600 M188.800 316.468 C 191.026 316.805,198.185 316.795,199.772 316.453 C 200.416 316.314,197.806 316.199,193.972 316.198 C 190.014 316.197,187.778 316.314,188.800 316.468 " stroke="none" fill="#c4f3b6" fill-rule="evenodd"></path></g></svg>